<svg xmlns="http://www.w3.org/2000/svg" xmlns:xlink="http://www.w3.org/1999/xlink" viewBox="0,0,256,256" width="100px" height="100px" fill-rule="nonzero"><g fill="#0cc0df" fill-rule="nonzero" stroke="none" stroke-width="1" stroke-linecap="butt" stroke-linejoin="miter" stroke-miterlimit="10" stroke-dasharray="" stroke-dashoffset="0" font-family="none" font-weight="none" font-size="none" text-anchor="none" style="mix-blend-mode: normal"><g transform="scale(5.12,5.12)"><path d="M25,0c-1.0625,0 -2.13281,0.38281 -2.96875,1.15625c-0.01172,0.01172 -0.01953,0.01953 -0.03125,0.03125l-20.8125,20.90625c-1.59375,1.59375 -1.57812,4.19922 -0.03125,5.875c0.01172,0.01172 0.01953,0.01953 0.03125,0.03125l20.8125,20.8125c1.59375,1.59375 4.19922,1.57813 5.875,0.03125c0.01172,-0.01172 0.01953,-0.01953 0.03125,-0.03125l20.8125,-20.8125c1.66406,-1.66406 1.6875,-4.3125 0.09375,-5.90625l-20.90625,-20.90625c-0.79687,-0.79687 -1.84375,-1.1875 -2.90625,-1.1875zM24.96875,2c0.5625,0 1.12891,0.19141 1.53125,0.59375l20.90625,20.90625c0.80859,0.80859 0.8125,2.15625 -0.125,3.09375l-20.75,20.78125c-0.01172,0.01172 -0.01953,0.02344 -0.03125,0.03125c-0.92578,0.82422 -2.29687,0.79688 -3.09375,0l-20.78125,-20.78125c-0.01172,-0.01172 -0.01953,-0.01953 -0.03125,-0.03125c-0.41016,-0.46094 -0.59766,-1.03516 -0.59375,-1.59375c0,-0.14062 0.00391,-0.26953 0.03125,-0.40625c0.07813,-0.40625 0.26172,-0.79297 0.5625,-1.09375l20.78125,-20.875l0.03125,-0.03125c0.45703,-0.40625 1.01172,-0.59375 1.5625,-0.59375zM24.90625,12.96875c-0.04297,0.00781 -0.08594,0.01953 -0.125,0.03125c-0.46484,0.10547 -0.79297,0.52344 -0.78125,1v19.5625l-5.28125,-5.28125c-0.14453,-0.14453 -0.32812,-0.24609 -0.53125,-0.28125c-0.13281,-0.02734 -0.27344,-0.02734 -0.40625,0c-0.375,0.06641 -0.67578,0.33984 -0.78125,0.70313c-0.10547,0.36719 0.00391,0.75781 0.28125,1.01563l6.875,6.84375c0.07422,0.11328 0.16797,0.20703 0.28125,0.28125l0.5625,0.5625l0.5625,-0.5625c0.03125,-0.01953 0.0625,-0.03906 0.09375,-0.0625l0.0625,-0.0625c0,-0.01172 0,-0.01953 0,-0.03125c0.02344,-0.01953 0.04297,-0.03906 0.0625,-0.0625l6.9375,-6.90625c0.39844,-0.39844 0.39844,-1.03906 0,-1.4375c-0.39844,-0.39844 -1.03906,-0.39844 -1.4375,0l-5.28125,5.28125v-19.5625c0,-0.03125 0,-0.0625 0,-0.09375c0,-0.03125 0,-0.0625 0,-0.09375c-0.01172,-0.07422 -0.03516,-0.14844 -0.0625,-0.21875c-0.01953,-0.02344 -0.03906,-0.04297 -0.0625,-0.0625c-0.02344,-0.06641 -0.05469,-0.12891 -0.09375,-0.1875c-0.01953,-0.02344 -0.03906,-0.04297 -0.0625,-0.0625c-0.03125,-0.02344 -0.0625,-0.04297 -0.09375,-0.0625c-0.19922,-0.17578 -0.45703,-0.26562 -0.71875,-0.25z"></path></g></g></svg>