<svg xmlns="http://www.w3.org/2000/svg" xmlns:xlink="http://www.w3.org/1999/xlink" width="80" zoomAndPan="magnify" viewBox="0 0 60 60" height="80" preserveAspectRatio="xMidYMid meet" version="1.0"><defs><g/><clipPath id="c5c0d7e1a7"><path d="M 9.359375 9.277344 L 50.691406 9.277344 L 50.691406 50.691406 L 9.359375 50.691406 Z M 9.359375 9.277344 " clip-rule="nonzero"/></clipPath><clipPath id="bfab137505"><path d="M 30 50.640625 C 24.488281 50.640625 19.300781 48.496094 15.40625 44.59375 C 11.503906 40.699219 9.359375 35.511719 9.359375 30 C 9.359375 24.488281 11.503906 19.300781 15.40625 15.40625 C 19.300781 11.503906 24.488281 9.359375 30 9.359375 C 35.511719 9.359375 40.699219 11.503906 44.59375 15.40625 C 48.496094 19.308594 50.640625 24.488281 50.640625 30 C 50.640625 35.511719 48.496094 40.699219 44.59375 44.59375 C 40.699219 48.496094 35.511719 50.640625 30 50.640625 Z M 30 10.597656 C 24.820312 10.597656 19.945312 12.617188 16.28125 16.28125 C 12.617188 19.945312 10.597656 24.820312 10.597656 30 C 10.597656 35.179688 12.617188 40.054688 16.28125 43.71875 C 19.945312 47.382812 24.820312 49.402344 30 49.402344 C 35.179688 49.402344 40.054688 47.382812 43.71875 43.71875 C 47.382812 40.054688 49.402344 35.179688 49.402344 30 C 49.402344 24.820312 47.382812 19.945312 43.71875 16.28125 C 40.054688 12.617188 35.179688 10.597656 30 10.597656 Z M 30 10.597656 " clip-rule="nonzero"/></clipPath><clipPath id="f95f5b3e24"><path d="M 16 25 L 44.683594 25 L 44.683594 44 L 16 44 Z M 16 25 " clip-rule="nonzero"/></clipPath><clipPath id="89ea5ea4d5"><path d="M 17 31 L 43 31 L 43 44.683594 L 17 44.683594 Z M 17 31 " clip-rule="nonzero"/></clipPath><clipPath id="a1c909d4af"><path d="M 15.433594 15.433594 L 44.683594 15.433594 L 44.683594 44.683594 L 15.433594 44.683594 Z M 15.433594 15.433594 " clip-rule="nonzero"/></clipPath></defs><g clip-path="url(#c5c0d7e1a7)"><g clip-path="url(#bfab137505)"><path fill="#112241" d="M 9.359375 9.359375 L 50.605469 9.359375 L 50.605469 50.605469 L 9.359375 50.605469 Z M 9.359375 9.359375 " fill-opacity="1" fill-rule="nonzero"/></g></g><path fill="#f2dea2" d="M 30.0625 16.066406 C 22.808594 16.066406 16.820312 21.558594 16.132812 28.691406 C 16.582031 28.328125 17.035156 27.925781 17.507812 27.503906 C 17.988281 27.074219 18.480469 26.632812 18.988281 26.226562 C 19.515625 25.792969 22.203125 25.636719 22.839844 26.25 C 23.640625 27.015625 24.398438 27.710938 25.09375 28.324219 C 25.101562 28.332031 25.113281 28.335938 25.121094 28.34375 C 27.699219 30.613281 29.089844 31.445312 29.515625 31.671875 C 30.5 31.085938 31.929688 31.078125 32.75 31.96875 C 33.277344 31.855469 33.824219 31.929688 34.328125 32.160156 C 34.265625 31.773438 34.292969 31.371094 34.414062 31 C 34.578125 30.507812 34.984375 29.824219 36.003906 29.363281 C 37.191406 28.824219 38.550781 28.976562 39.589844 29.648438 C 38.875 28.492188 37.898438 27.976562 37.273438 27.757812 C 36.222656 27.378906 35.25 27.46875 34.75 27.726562 C 34.671875 27.765625 34.605469 27.8125 34.554688 27.859375 C 34.648438 27.96875 34.722656 28.117188 34.765625 28.296875 C 34.902344 28.828125 34.742188 29.5 34.085938 29.792969 C 33.601562 30.015625 33.085938 29.945312 32.675781 29.609375 C 32.101562 29.140625 31.859375 28.273438 32.054688 27.398438 C 32.351562 26.070312 33.292969 25.386719 34.027344 25.046875 C 35.207031 24.503906 36.695312 24.46875 37.703125 24.941406 C 39.144531 24.5625 40.800781 24.84375 42.15625 25.695312 C 42.804688 26.105469 43.34375 26.621094 43.761719 27.214844 C 42.449219 20.804688 36.820312 16.066406 30.0625 16.066406 Z M 37.035156 31.550781 C 36.957031 31.5625 36.882812 31.585938 36.816406 31.613281 C 36.851562 31.636719 36.890625 31.660156 36.925781 31.6875 C 37.261719 31.949219 37.472656 32.484375 37.183594 33.089844 C 37.003906 33.46875 36.621094 33.734375 36.160156 33.792969 C 36.066406 33.804688 35.976562 33.804688 35.886719 33.800781 C 35.988281 34.050781 36.058594 34.3125 36.09375 34.578125 C 36.625 34.601562 37.210938 34.320312 37.636719 33.824219 C 38.089844 33.289062 38.246094 32.660156 38.050781 32.128906 C 37.8125 31.710938 37.433594 31.492188 37.035156 31.550781 " fill-opacity="1" fill-rule="nonzero"/><g clip-path="url(#f95f5b3e24)"><path fill="#ffffff" d="M 44.042969 29.625 C 43.523438 28.882812 42.449219 28.722656 41.867188 28.855469 C 41.703125 28.894531 41.558594 28.945312 41.429688 29.015625 C 40.96875 29.253906 40.699219 29.703125 40.730469 30.164062 C 40.757812 30.542969 40.976562 30.828125 41.328125 30.949219 C 41.53125 31.019531 41.742188 30.898438 41.835938 30.746094 C 41.921875 30.617188 41.914062 30.492188 41.804688 30.378906 C 41.746094 30.3125 41.714844 30.222656 41.722656 30.132812 C 41.730469 30.046875 41.777344 29.964844 41.851562 29.910156 C 42.175781 29.667969 42.621094 29.691406 43.015625 29.964844 C 43.441406 30.257812 43.789062 30.820312 43.96875 31.605469 C 44.023438 31.09375 44.054688 30.582031 44.054688 30.0625 C 44.054688 29.914062 44.050781 29.769531 44.042969 29.625 Z M 33.074219 29.121094 C 33.230469 29.25 33.492188 29.375 33.828125 29.21875 C 34.03125 29.128906 34.148438 28.972656 34.175781 28.75 C 34.203125 28.523438 34.125 28.332031 34.074219 28.269531 C 34 28.257812 33.929688 28.21875 33.878906 28.15625 C 33.8125 28.078125 33.789062 27.972656 33.816406 27.871094 C 33.898438 27.585938 34.121094 27.339844 34.464844 27.164062 C 35.191406 26.789062 36.324219 26.777344 37.375 27.125 C 38.414062 26.773438 40.539062 27.039062 41.414062 28.335938 C 41.511719 28.296875 41.617188 28.265625 41.726562 28.242188 C 42.234375 28.125 43.070312 28.160156 43.773438 28.554688 C 43.402344 27.613281 42.730469 26.804688 41.824219 26.230469 C 40.574219 25.445312 39.054688 25.203125 37.757812 25.582031 C 37.679688 25.605469 37.59375 25.597656 37.523438 25.558594 C 36.6875 25.113281 35.332031 25.140625 34.292969 25.621094 C 33.683594 25.898438 32.910156 26.460938 32.671875 27.535156 C 32.503906 28.269531 32.753906 28.859375 33.074219 29.121094 Z M 36.261719 29.9375 C 35.621094 30.226562 35.191406 30.664062 35.011719 31.199219 C 34.855469 31.679688 34.90625 32.230469 35.152344 32.667969 C 35.1875 32.722656 35.222656 32.789062 35.269531 32.839844 C 35.480469 33.089844 35.773438 33.210938 36.078125 33.167969 C 36.324219 33.136719 36.53125 33.003906 36.617188 32.820312 C 36.761719 32.511719 36.664062 32.285156 36.539062 32.183594 C 36.46875 32.132812 36.410156 32.128906 36.398438 32.136719 C 36.292969 32.226562 36.144531 32.234375 36.03125 32.164062 C 35.914062 32.09375 35.855469 31.960938 35.886719 31.828125 C 35.992188 31.359375 36.40625 31.003906 36.945312 30.929688 C 37.46875 30.851562 38.175781 31.050781 38.605469 31.832031 C 38.609375 31.835938 38.609375 31.835938 38.613281 31.839844 C 38.644531 31.894531 38.671875 31.949219 38.695312 32.003906 C 39.058594 32.796875 39.054688 33.773438 38.683594 34.675781 C 38.257812 35.707031 37.402344 36.53125 36.257812 37.023438 C 36.300781 37.335938 36.289062 37.648438 36.226562 37.945312 C 36.90625 37.691406 37.722656 37.710938 38.445312 38.023438 C 41.542969 35.667969 40.792969 32.308594 40.277344 31.304688 C 39.542969 29.878906 37.738281 29.269531 36.261719 29.9375 Z M 38.367188 38.679688 C 38.355469 38.675781 38.347656 38.671875 38.339844 38.667969 C 37.5 38.238281 36.429688 38.335938 35.855469 38.902344 L 35.789062 38.972656 C 35.757812 39.027344 35.714844 39.082031 35.667969 39.140625 C 35.554688 39.328125 35.5 39.546875 35.515625 39.757812 C 35.53125 40.144531 35.75 40.429688 36.03125 40.441406 C 36.328125 40.445312 36.425781 40.277344 36.457031 40.203125 C 36.5 40.105469 36.507812 39.96875 36.425781 39.882812 C 36.34375 39.800781 36.3125 39.675781 36.351562 39.5625 C 36.386719 39.449219 36.484375 39.367188 36.605469 39.347656 C 36.832031 39.316406 37.050781 39.335938 37.234375 39.402344 C 37.238281 39.40625 37.242188 39.40625 37.246094 39.40625 C 37.742188 39.574219 38.078125 40.050781 38.136719 40.683594 C 38.160156 40.945312 38.132812 41.246094 38.035156 41.554688 C 38.589844 41.171875 39.121094 40.742188 39.617188 40.277344 C 39.351562 39.363281 38.800781 38.90625 38.367188 38.679688 Z M 35.597656 36.894531 C 35.539062 36.636719 35.4375 36.386719 35.300781 36.152344 C 35.246094 36.0625 35.242188 35.953125 35.285156 35.859375 C 35.433594 35.550781 35.5 35.210938 35.484375 34.875 C 35.46875 34.296875 35.21875 33.714844 34.800781 33.273438 C 34.226562 32.65625 33.433594 32.410156 32.726562 32.625 C 32.601562 32.667969 32.460938 32.621094 32.378906 32.511719 C 31.78125 31.707031 30.492188 31.75 29.714844 32.292969 C 29.242188 32.617188 28.984375 33.09375 28.980469 33.640625 C 28.976562 33.964844 29.085938 34.226562 29.28125 34.351562 C 29.425781 34.445312 29.601562 34.453125 29.773438 34.375 C 29.851562 34.339844 29.921875 34.238281 29.953125 34.117188 C 29.980469 33.996094 29.957031 33.921875 29.945312 33.90625 C 29.796875 33.851562 29.71875 33.703125 29.753906 33.546875 C 29.886719 32.984375 30.378906 32.621094 30.960938 32.660156 C 31.449219 32.679688 32 32.96875 32.238281 33.546875 C 32.785156 33.425781 33.382812 33.570312 33.863281 33.957031 C 34.824219 34.734375 35.011719 36.238281 34.292969 37.382812 C 33.960938 37.90625 33.480469 38.3125 32.863281 38.585938 C 32.367188 38.808594 31.847656 38.902344 31.328125 38.902344 C 31.21875 38.902344 31.109375 38.898438 31 38.890625 C 31.785156 39.21875 32.652344 39.464844 33.570312 39.535156 L 33.625 39.535156 C 34.199219 39.535156 34.773438 39.246094 35.160156 38.765625 C 35.203125 38.703125 35.242188 38.644531 35.285156 38.59375 C 35.621094 38.097656 35.730469 37.496094 35.597656 36.894531 Z M 25.933594 38.589844 C 25.820312 38.832031 25.671875 39.050781 25.492188 39.230469 C 25.628906 39.347656 25.792969 39.488281 25.976562 39.652344 C 26.890625 40.457031 28.277344 41.675781 29.707031 42.625 L 29.769531 42.667969 C 30.722656 43.304688 31.546875 43.851562 32.363281 43.863281 C 32.941406 43.769531 33.511719 43.636719 34.070312 43.46875 C 33.003906 43.292969 31.824219 42.765625 30.480469 41.878906 C 28.855469 40.800781 27.039062 39.4375 25.933594 38.589844 Z M 27.054688 36.195312 C 27.054688 36.195312 27.058594 36.199219 27.058594 36.199219 C 27.15625 36.296875 27.238281 36.378906 27.328125 36.464844 C 27.332031 36.464844 27.332031 36.464844 27.332031 36.46875 C 27.332031 36.46875 27.335938 36.46875 27.335938 36.46875 C 28.734375 37.726562 30.855469 38.785156 32.609375 38.011719 C 33.105469 37.789062 33.496094 37.464844 33.761719 37.046875 C 34.3125 36.167969 34.183594 35.027344 33.46875 34.449219 C 32.992188 34.0625 32.476562 34.085938 32.15625 34.238281 C 31.800781 34.410156 31.613281 34.742188 31.660156 35.121094 C 31.699219 35.4375 31.859375 35.636719 32.09375 35.65625 C 32.246094 35.675781 32.449219 35.582031 32.515625 35.355469 C 32.554688 35.21875 32.679688 35.144531 32.820312 35.128906 C 32.960938 35.132812 33.085938 35.226562 33.121094 35.363281 C 33.25 35.835938 33.070312 36.34375 32.644531 36.71875 C 32.109375 37.1875 31.117188 37.476562 30.117188 37.058594 C 28.761719 36.492188 27.824219 35.367188 26.996094 34.371094 C 26.910156 34.269531 26.828125 34.167969 26.746094 34.070312 C 26.921875 34.714844 26.914062 35.324219 26.707031 35.835938 C 26.824219 35.960938 26.9375 36.082031 27.054688 36.195312 Z M 23.011719 32.71875 C 24.269531 33.042969 25.117188 33.839844 25.335938 34.902344 C 25.371094 35.074219 25.261719 35.238281 25.089844 35.273438 C 25.078125 35.277344 25.070312 35.277344 25.058594 35.277344 C 25.046875 35.277344 25.039062 35.28125 25.027344 35.28125 C 25.027344 35.28125 25.023438 35.28125 25.023438 35.28125 C 25.023438 35.28125 25.019531 35.28125 25.019531 35.277344 C 25.015625 35.28125 25.011719 35.28125 25.007812 35.28125 C 24.855469 35.292969 24.792969 35.507812 24.789062 35.53125 C 24.75 35.714844 24.785156 36.066406 25.167969 36.214844 C 25.367188 36.292969 25.546875 36.234375 25.660156 36.175781 C 25.816406 36.089844 25.957031 35.941406 26.054688 35.761719 C 26.054688 35.757812 26.054688 35.75 26.058594 35.746094 C 26.214844 35.445312 26.5 34.605469 25.726562 33.269531 C 25.632812 33.113281 25.53125 32.96875 25.421875 32.84375 C 25.417969 32.839844 25.417969 32.839844 25.417969 32.839844 C 25.417969 32.839844 25.414062 32.835938 25.414062 32.835938 C 24.121094 31.292969 21.320312 30.71875 18.902344 31.507812 C 17.972656 31.8125 17.117188 32.296875 16.363281 32.9375 C 16.480469 33.5 16.632812 34.058594 16.820312 34.605469 C 18.710938 32.703125 21.304688 32.273438 23.011719 32.71875 Z M 25.554688 36.863281 C 25.492188 36.875 25.425781 36.882812 25.363281 36.882812 C 25.21875 36.882812 25.078125 36.855469 24.941406 36.804688 C 24.265625 36.539062 24.070312 35.894531 24.171875 35.40625 C 24.210938 35.21875 24.289062 35.0625 24.398438 34.9375 C 23.46875 34.402344 22.414062 34.222656 21.351562 34.40625 C 22.101562 34.523438 22.796875 34.835938 23.355469 35.332031 C 24.179688 36.066406 24.539062 37.09375 24.3125 38.074219 C 24.28125 38.21875 24.144531 38.289062 24 38.320312 C 23.851562 38.316406 23.726562 38.210938 23.695312 38.066406 C 23.667969 37.933594 23.542969 37.878906 23.445312 37.875 C 23.378906 37.863281 23.15625 37.878906 23.058594 38.183594 C 22.976562 38.425781 23.050781 38.625 23.125 38.753906 C 23.3125 39.09375 23.699219 39.277344 24.121094 39.222656 C 24.390625 39.191406 24.625 39.109375 24.824219 38.972656 C 25.136719 38.757812 25.363281 38.429688 25.484375 37.996094 C 25.578125 37.660156 25.601562 37.269531 25.554688 36.863281 Z M 17.359375 28.953125 C 17.550781 28.984375 17.710938 29.070312 17.835938 29.203125 C 18.550781 28.582031 19.222656 28.328125 19.714844 28.503906 C 19.828125 28.546875 19.929688 28.609375 20.007812 28.691406 C 20.371094 28.242188 20.753906 28.019531 21.160156 28.015625 L 21.167969 28.015625 C 21.640625 28.015625 22.09375 28.320312 22.535156 28.9375 C 22.710938 28.789062 22.917969 28.703125 23.148438 28.691406 C 23.507812 28.671875 23.882812 28.824219 24.226562 29.046875 C 24.230469 28.976562 24.238281 28.902344 24.253906 28.835938 C 24.28125 28.75 24.324219 28.652344 24.402344 28.554688 C 23.777344 27.996094 23.105469 27.378906 22.402344 26.703125 C 22.046875 26.363281 19.726562 26.433594 19.382812 26.714844 C 18.890625 27.113281 18.402344 27.550781 17.925781 27.972656 C 17.527344 28.328125 17.140625 28.675781 16.757812 28.996094 C 16.964844 28.941406 17.171875 28.917969 17.359375 28.953125 Z M 23.742188 37.296875 C 23.691406 36.75 23.410156 36.226562 22.933594 35.804688 C 22.207031 35.152344 20.863281 34.664062 19.277344 35.222656 C 18.695312 35.589844 18.164062 36.054688 17.691406 36.605469 C 17.8125 36.835938 17.929688 37.042969 18.046875 37.238281 C 18.769531 36.476562 19.824219 36.167969 20.625 36.207031 C 21.40625 36.246094 22.027344 36.585938 22.328125 37.140625 C 22.375 37.222656 22.378906 37.320312 22.34375 37.410156 C 22.308594 37.496094 22.238281 37.5625 22.148438 37.589844 C 21.789062 37.707031 21.71875 37.964844 21.707031 38.109375 C 21.6875 38.355469 21.816406 38.597656 22.019531 38.703125 C 22.023438 38.707031 22.03125 38.707031 22.035156 38.710938 C 22.148438 38.761719 22.289062 38.769531 22.441406 38.734375 C 22.375 38.492188 22.378906 38.234375 22.457031 37.988281 C 22.613281 37.507812 23.027344 37.21875 23.480469 37.242188 C 23.570312 37.25 23.660156 37.265625 23.742188 37.296875 " fill-opacity="1" fill-rule="nonzero"/></g><path fill="#27498c" d="M 42.65625 30.480469 C 42.621094 30.457031 42.570312 30.425781 42.507812 30.402344 C 42.554688 30.628906 42.507812 30.871094 42.367188 31.09375 C 42.261719 31.25 42.125 31.375 41.96875 31.460938 C 42.375 31.886719 42.667969 32.515625 42.808594 33.296875 C 42.949219 34.085938 42.929688 35.039062 42.710938 36.046875 C 42.851562 35.75 42.984375 35.445312 43.101562 35.136719 C 43.105469 35.128906 43.105469 35.121094 43.109375 35.113281 C 43.929688 32.265625 43.171875 30.839844 42.65625 30.480469 Z M 38.441406 27.617188 C 39.042969 27.988281 39.699219 28.566406 40.21875 29.464844 C 40.34375 29.140625 40.5625 28.851562 40.855469 28.636719 C 40.332031 27.90625 39.269531 27.632812 38.441406 27.617188 Z M 37.035156 40.457031 C 36.859375 40.859375 36.464844 41.085938 36 41.074219 C 35.488281 41.042969 35.078125 40.667969 34.9375 40.132812 C 34.652344 40.167969 34.375 40.183594 34.101562 40.183594 C 33.9375 40.183594 33.773438 40.175781 33.609375 40.164062 L 33.554688 40.164062 C 33.554688 40.164062 33.550781 40.164062 33.550781 40.164062 C 33.542969 40.164062 33.539062 40.164062 33.53125 40.164062 C 33.53125 40.164062 33.53125 40.164062 33.527344 40.164062 C 33.484375 40.164062 33.433594 40.160156 33.390625 40.152344 C 33.386719 40.152344 33.382812 40.148438 33.378906 40.148438 C 32.570312 40.070312 31.804688 39.875 31.097656 39.609375 C 32.441406 40.589844 33.867188 41.40625 35.125 41.585938 C 36.070312 41.722656 36.738281 41.503906 37 40.96875 C 37.109375 40.75 37.125 40.507812 37.085938 40.300781 C 37.074219 40.355469 37.058594 40.40625 37.035156 40.457031 Z M 32.175781 36.285156 C 32.132812 36.289062 32.085938 36.285156 32.039062 36.28125 C 31.632812 36.25 31.128906 35.945312 31.035156 35.199219 C 30.964844 34.632812 31.203125 34.113281 31.664062 33.796875 C 31.542969 33.476562 31.21875 33.300781 30.9375 33.292969 C 30.839844 33.28125 30.582031 33.296875 30.441406 33.515625 C 30.535156 33.632812 30.589844 33.792969 30.597656 33.972656 C 30.609375 34.332031 30.417969 34.78125 30.03125 34.953125 C 29.664062 35.117188 29.261719 35.09375 28.9375 34.878906 C 28.558594 34.632812 28.34375 34.179688 28.347656 33.632812 C 28.351562 33.042969 28.578125 32.511719 28.980469 32.09375 C 28.363281 31.734375 27.046875 30.863281 24.878906 28.96875 C 24.867188 28.984375 24.863281 29 24.863281 29.007812 C 24.820312 29.152344 24.925781 29.515625 25.351562 30.0625 C 25.394531 30.113281 25.453125 30.183594 25.511719 30.253906 C 25.625 30.390625 25.605469 30.589844 25.472656 30.699219 C 25.414062 30.75 25.339844 30.773438 25.269531 30.773438 C 25.179688 30.773438 25.089844 30.734375 25.03125 30.660156 L 25.027344 30.65625 C 24.972656 30.589844 24.921875 30.527344 24.867188 30.46875 C 24.867188 30.464844 24.867188 30.464844 24.867188 30.464844 C 24.863281 30.464844 24.863281 30.464844 24.863281 30.464844 C 24.230469 29.734375 23.589844 29.292969 23.183594 29.320312 C 23.0625 29.324219 22.96875 29.378906 22.882812 29.484375 C 22.964844 29.625 23.042969 29.773438 23.117188 29.925781 C 23.191406 30.082031 23.128906 30.269531 22.972656 30.347656 C 22.816406 30.421875 22.625 30.355469 22.550781 30.199219 C 22.4375 29.96875 22.316406 29.75 22.191406 29.550781 C 21.816406 28.960938 21.464844 28.648438 21.167969 28.648438 L 21.164062 28.648438 C 20.878906 28.648438 20.554688 28.941406 20.222656 29.488281 C 20.152344 29.605469 20.015625 29.664062 19.882812 29.632812 C 19.75 29.601562 19.652344 29.488281 19.640625 29.351562 C 19.621094 29.140625 19.53125 29.109375 19.5 29.097656 C 19.261719 29.007812 18.683594 29.226562 17.988281 29.921875 C 17.710938 30.191406 17.429688 30.523438 17.152344 30.910156 C 17.089844 30.992188 16.996094 31.039062 16.898438 31.039062 C 16.832031 31.039062 16.769531 31.019531 16.710938 30.980469 C 16.570312 30.878906 16.539062 30.679688 16.640625 30.539062 C 16.886719 30.199219 17.136719 29.898438 17.382812 29.640625 C 17.347656 29.597656 17.300781 29.582031 17.25 29.574219 C 16.910156 29.515625 16.304688 29.832031 16.066406 30.082031 C 16.066406 30.816406 16.125 31.535156 16.234375 32.230469 C 16.957031 31.664062 17.761719 31.230469 18.632812 30.9375 C 18.988281 30.5625 19.261719 30.085938 19.261719 30.082031 C 19.347656 29.929688 19.542969 29.878906 19.691406 29.964844 C 19.84375 30.050781 19.898438 30.242188 19.8125 30.394531 C 19.804688 30.40625 19.742188 30.511719 19.640625 30.667969 C 22.035156 30.199219 24.523438 30.855469 25.84375 32.367188 C 26.402344 32.675781 26.90625 33.273438 27.484375 33.96875 C 28.265625 34.90625 29.148438 35.972656 30.359375 36.476562 C 31.078125 36.777344 31.777344 36.601562 32.175781 36.285156 Z M 26.554688 31.507812 C 26.492188 31.589844 26.398438 31.632812 26.304688 31.632812 C 26.238281 31.632812 26.171875 31.609375 26.113281 31.566406 C 26.011719 31.488281 25.957031 31.433594 25.957031 31.433594 C 25.835938 31.308594 25.835938 31.109375 25.960938 30.984375 C 26.082031 30.863281 26.28125 30.863281 26.402344 30.984375 C 26.40625 30.992188 26.441406 31.023438 26.5 31.066406 C 26.636719 31.171875 26.660156 31.371094 26.554688 31.507812 Z M 21.738281 39.265625 C 21.359375 39.050781 20.992188 38.886719 20.640625 38.773438 C 21.660156 39.472656 22.617188 40.574219 23.453125 41.542969 C 23.960938 42.128906 24.4375 42.679688 24.847656 43.050781 C 25.703125 43.394531 26.585938 43.648438 27.480469 43.816406 C 26.648438 43.335938 25.773438 42.644531 24.808594 41.707031 C 23.601562 40.542969 22.625 39.769531 21.738281 39.265625 Z M 21.078125 38.0625 C 21.101562 37.699219 21.28125 37.390625 21.566406 37.183594 C 21.335938 36.980469 21 36.855469 20.59375 36.835938 C 19.894531 36.800781 18.976562 37.085938 18.394531 37.789062 C 18.453125 37.878906 18.511719 37.964844 18.570312 38.046875 C 19.371094 37.859375 20.199219 37.925781 21.078125 38.257812 C 21.074219 38.195312 21.074219 38.128906 21.078125 38.0625 " fill-opacity="1" fill-rule="nonzero"/><g clip-path="url(#89ea5ea4d5)"><path fill="#0477bf" d="M 42.1875 33.410156 C 42.023438 32.496094 41.621094 31.832031 41.082031 31.585938 C 41.074219 31.582031 41.070312 31.582031 41.066406 31.578125 C 41.554688 33.066406 41.808594 36.097656 39.039062 38.363281 C 39.511719 38.710938 39.875 39.195312 40.109375 39.78125 C 41.96875 37.679688 42.496094 35.117188 42.1875 33.410156 Z M 36.148438 35.210938 C 36.132812 35.210938 36.117188 35.207031 36.101562 35.207031 C 36.082031 35.46875 36.019531 35.726562 35.921875 35.976562 C 35.996094 36.113281 36.054688 36.253906 36.105469 36.398438 C 37.046875 35.972656 37.75 35.285156 38.101562 34.4375 C 38.144531 34.328125 38.179688 34.21875 38.210938 34.113281 C 38.179688 34.152344 38.148438 34.191406 38.113281 34.234375 C 37.585938 34.851562 36.847656 35.210938 36.148438 35.210938 Z M 35.644531 42.257812 C 35.457031 42.257812 35.253906 42.242188 35.035156 42.210938 C 33.222656 41.949219 30.949219 40.535156 27.882812 37.761719 C 27.871094 37.753906 27.867188 37.75 27.855469 37.742188 C 27.542969 37.496094 27.230469 37.234375 26.90625 36.929688 C 26.902344 36.929688 26.902344 36.925781 26.902344 36.925781 C 26.808594 36.839844 26.722656 36.753906 26.640625 36.671875 C 26.625 36.660156 26.617188 36.648438 26.605469 36.636719 C 26.527344 36.558594 26.445312 36.480469 26.371094 36.398438 C 26.304688 36.472656 26.234375 36.542969 26.15625 36.601562 C 26.230469 37.074219 26.226562 37.535156 26.144531 37.953125 C 27.21875 38.78125 29.128906 40.226562 30.828125 41.351562 C 33.0625 42.832031 34.773438 43.238281 36.210938 42.628906 C 36.214844 42.628906 36.234375 42.617188 36.253906 42.609375 C 36.308594 42.582031 36.367188 42.554688 36.421875 42.523438 C 36.4375 42.511719 36.449219 42.507812 36.464844 42.5 C 36.46875 42.496094 36.46875 42.496094 36.46875 42.496094 C 36.929688 42.25 37.210938 41.90625 37.363281 41.558594 C 37.09375 41.886719 36.582031 42.257812 35.644531 42.257812 Z M 29.359375 43.148438 C 27.894531 42.179688 26.433594 40.894531 25.558594 40.125 C 25.320312 39.917969 25.125 39.742188 24.972656 39.613281 C 24.738281 39.738281 24.476562 39.816406 24.199219 39.847656 C 24.121094 39.859375 24.046875 39.863281 23.972656 39.863281 C 23.859375 39.863281 23.753906 39.847656 23.648438 39.828125 C 24.140625 40.226562 24.667969 40.699219 25.246094 41.257812 C 27.246094 43.191406 28.792969 44.027344 30.417969 44.046875 L 30.421875 44.046875 C 30.53125 44.046875 30.632812 44.042969 30.726562 44.035156 C 30.746094 44.035156 30.769531 44.035156 30.785156 44.035156 C 30.335938 43.800781 29.882812 43.5 29.421875 43.191406 Z M 24.320312 34.191406 C 23.996094 33.789062 23.496094 33.492188 22.851562 33.328125 C 21.210938 32.902344 18.722656 33.441406 17.066406 35.265625 C 17.164062 35.507812 17.269531 35.753906 17.386719 36 C 17.863281 35.476562 18.390625 35.03125 18.960938 34.671875 C 18.964844 34.671875 18.96875 34.671875 18.972656 34.667969 C 18.976562 34.664062 18.976562 34.664062 18.980469 34.664062 C 18.980469 34.664062 18.980469 34.660156 18.984375 34.660156 C 18.984375 34.660156 18.984375 34.660156 18.988281 34.660156 C 20.714844 33.582031 22.679688 33.429688 24.320312 34.191406 Z M 19.089844 38.742188 C 20.242188 40.199219 21.664062 41.402344 23.269531 42.292969 C 23.171875 42.183594 23.074219 42.070312 22.976562 41.953125 C 21.824219 40.621094 20.433594 39.011719 19.089844 38.742188 " fill-opacity="1" fill-rule="nonzero"/></g><g clip-path="url(#a1c909d4af)"><path fill="#112140" d="M 44.683594 30.0625 C 44.683594 29.898438 44.679688 29.738281 44.671875 29.578125 C 44.675781 29.5625 44.679688 29.550781 44.679688 29.535156 C 44.679688 29.515625 44.675781 29.496094 44.671875 29.476562 C 44.359375 21.601562 37.941406 15.433594 30.0625 15.433594 C 22.242188 15.433594 15.824219 21.546875 15.453125 29.347656 C 15.441406 29.550781 15.433594 29.757812 15.433594 29.960938 L 15.433594 30.0625 C 15.433594 31.027344 15.527344 31.972656 15.703125 32.875 C 15.863281 33.699219 16.097656 34.519531 16.40625 35.308594 C 16.582031 35.769531 16.792969 36.242188 17.03125 36.710938 C 17.03125 36.710938 17.035156 36.714844 17.035156 36.714844 C 17.285156 37.199219 17.511719 37.589844 17.742188 37.941406 C 17.878906 38.164062 18.03125 38.386719 18.183594 38.589844 C 19.800781 40.835938 22.003906 42.574219 24.554688 43.609375 C 24.558594 43.609375 24.5625 43.609375 24.5625 43.609375 L 24.5625 43.617188 C 26.3125 44.324219 28.164062 44.683594 30.0625 44.683594 C 30.1875 44.683594 30.308594 44.683594 30.414062 44.679688 C 30.53125 44.679688 30.652344 44.675781 30.738281 44.664062 C 30.742188 44.664062 30.746094 44.664062 30.75 44.664062 C 30.8125 44.664062 30.878906 44.664062 30.941406 44.65625 L 30.941406 44.660156 C 31.488281 44.625 31.976562 44.570312 32.4375 44.492188 C 32.441406 44.492188 32.445312 44.488281 32.449219 44.488281 C 32.449219 44.488281 32.453125 44.488281 32.453125 44.488281 C 33.847656 44.261719 35.191406 43.828125 36.457031 43.207031 C 36.476562 43.199219 36.511719 43.1875 36.53125 43.175781 L 36.6875 43.101562 C 36.710938 43.089844 36.753906 43.070312 36.796875 43.035156 C 38.03125 42.402344 39.171875 41.585938 40.1875 40.605469 C 40.210938 40.589844 40.238281 40.566406 40.242188 40.550781 C 41.773438 39.074219 42.933594 37.320312 43.699219 35.34375 C 43.707031 35.324219 43.710938 35.300781 43.71875 35.28125 C 44.359375 33.628906 44.683594 31.875 44.683594 30.0625 Z M 36.925781 31.6875 C 36.890625 31.660156 36.851562 31.636719 36.816406 31.613281 C 36.882812 31.585938 36.957031 31.5625 37.035156 31.550781 C 37.433594 31.492188 37.8125 31.710938 38.050781 32.128906 C 38.246094 32.660156 38.089844 33.289062 37.636719 33.824219 C 37.210938 34.320312 36.625 34.601562 36.09375 34.578125 C 36.058594 34.3125 35.988281 34.050781 35.886719 33.800781 C 35.976562 33.804688 36.066406 33.804688 36.160156 33.792969 C 36.621094 33.734375 37.003906 33.46875 37.183594 33.089844 C 37.472656 32.484375 37.261719 31.949219 36.925781 31.6875 Z M 36.101562 35.207031 C 36.117188 35.207031 36.132812 35.210938 36.148438 35.210938 C 36.847656 35.210938 37.585938 34.851562 38.113281 34.234375 C 38.148438 34.191406 38.179688 34.152344 38.210938 34.113281 C 38.179688 34.21875 38.144531 34.328125 38.101562 34.4375 C 37.75 35.285156 37.046875 35.972656 36.105469 36.398438 C 36.054688 36.253906 35.996094 36.113281 35.921875 35.976562 C 36.019531 35.726562 36.082031 35.46875 36.101562 35.207031 Z M 36.257812 37.023438 C 37.402344 36.53125 38.257812 35.707031 38.683594 34.675781 C 39.054688 33.773438 39.058594 32.796875 38.695312 32.003906 C 38.671875 31.949219 38.644531 31.894531 38.613281 31.839844 C 38.609375 31.835938 38.609375 31.835938 38.605469 31.832031 C 38.175781 31.050781 37.46875 30.851562 36.945312 30.929688 C 36.40625 31.003906 35.992188 31.359375 35.886719 31.828125 C 35.855469 31.960938 35.914062 32.09375 36.03125 32.164062 C 36.144531 32.234375 36.292969 32.226562 36.398438 32.136719 C 36.410156 32.128906 36.46875 32.132812 36.539062 32.183594 C 36.664062 32.285156 36.761719 32.511719 36.617188 32.820312 C 36.53125 33.003906 36.324219 33.136719 36.078125 33.167969 C 35.773438 33.210938 35.480469 33.089844 35.269531 32.839844 C 35.222656 32.789062 35.1875 32.722656 35.152344 32.667969 C 34.90625 32.230469 34.855469 31.679688 35.011719 31.199219 C 35.191406 30.664062 35.621094 30.226562 36.261719 29.9375 C 37.738281 29.269531 39.542969 29.878906 40.277344 31.304688 C 40.792969 32.308594 41.542969 35.667969 38.445312 38.023438 C 37.722656 37.710938 36.90625 37.691406 36.226562 37.945312 C 36.289062 37.648438 36.300781 37.335938 36.257812 37.023438 Z M 35.285156 38.59375 C 35.242188 38.644531 35.203125 38.703125 35.160156 38.765625 C 34.773438 39.246094 34.199219 39.535156 33.625 39.535156 L 33.570312 39.535156 C 32.652344 39.464844 31.785156 39.21875 31 38.890625 C 31.109375 38.898438 31.21875 38.902344 31.328125 38.902344 C 31.847656 38.902344 32.367188 38.808594 32.863281 38.585938 C 33.480469 38.3125 33.960938 37.90625 34.292969 37.382812 C 35.011719 36.238281 34.824219 34.734375 33.863281 33.957031 C 33.382812 33.570312 32.785156 33.425781 32.238281 33.546875 C 32 32.96875 31.449219 32.679688 30.960938 32.660156 C 30.378906 32.621094 29.886719 32.984375 29.753906 33.546875 C 29.71875 33.703125 29.796875 33.851562 29.945312 33.90625 C 29.957031 33.921875 29.980469 33.996094 29.953125 34.117188 C 29.921875 34.238281 29.851562 34.339844 29.773438 34.375 C 29.601562 34.453125 29.425781 34.445312 29.28125 34.351562 C 29.085938 34.226562 28.976562 33.964844 28.980469 33.640625 C 28.984375 33.09375 29.242188 32.617188 29.714844 32.292969 C 30.492188 31.75 31.78125 31.707031 32.378906 32.511719 C 32.460938 32.621094 32.601562 32.667969 32.726562 32.625 C 33.433594 32.410156 34.226562 32.65625 34.800781 33.273438 C 35.21875 33.714844 35.46875 34.296875 35.484375 34.875 C 35.5 35.210938 35.433594 35.550781 35.285156 35.859375 C 35.242188 35.953125 35.246094 36.0625 35.300781 36.152344 C 35.4375 36.386719 35.539062 36.636719 35.597656 36.894531 C 35.730469 37.496094 35.621094 38.097656 35.285156 38.59375 Z M 36 41.074219 C 36.464844 41.085938 36.859375 40.859375 37.035156 40.457031 C 37.058594 40.40625 37.074219 40.355469 37.085938 40.300781 C 37.125 40.507812 37.109375 40.75 37 40.96875 C 36.738281 41.503906 36.070312 41.722656 35.125 41.585938 C 33.867188 41.40625 32.441406 40.589844 31.097656 39.609375 C 31.804688 39.875 32.570312 40.070312 33.378906 40.148438 C 33.382812 40.148438 33.386719 40.152344 33.390625 40.152344 C 33.433594 40.160156 33.484375 40.164062 33.527344 40.164062 C 33.53125 40.164062 33.53125 40.164062 33.53125 40.164062 C 33.539062 40.164062 33.542969 40.164062 33.550781 40.164062 C 33.550781 40.164062 33.554688 40.164062 33.554688 40.164062 L 33.609375 40.164062 C 33.773438 40.175781 33.9375 40.183594 34.101562 40.183594 C 34.375 40.183594 34.652344 40.167969 34.9375 40.132812 C 35.078125 40.667969 35.488281 41.042969 36 41.074219 Z M 26.746094 34.070312 C 26.828125 34.167969 26.910156 34.269531 26.996094 34.371094 C 27.824219 35.367188 28.761719 36.492188 30.117188 37.058594 C 31.117188 37.476562 32.109375 37.1875 32.644531 36.71875 C 33.070312 36.34375 33.25 35.835938 33.121094 35.363281 C 33.085938 35.226562 32.960938 35.132812 32.820312 35.128906 C 32.679688 35.144531 32.554688 35.21875 32.515625 35.355469 C 32.449219 35.582031 32.246094 35.675781 32.09375 35.65625 C 31.859375 35.636719 31.699219 35.4375 31.660156 35.121094 C 31.613281 34.742188 31.800781 34.410156 32.15625 34.238281 C 32.476562 34.085938 32.992188 34.0625 33.46875 34.449219 C 34.183594 35.027344 34.3125 36.167969 33.761719 37.046875 C 33.496094 37.464844 33.105469 37.789062 32.609375 38.011719 C 30.855469 38.785156 28.734375 37.726562 27.335938 36.46875 C 27.335938 36.46875 27.332031 36.46875 27.332031 36.46875 C 27.332031 36.464844 27.332031 36.464844 27.328125 36.464844 C 27.238281 36.378906 27.15625 36.296875 27.058594 36.199219 C 27.058594 36.199219 27.054688 36.195312 27.054688 36.195312 C 26.9375 36.082031 26.824219 35.960938 26.707031 35.835938 C 26.914062 35.324219 26.921875 34.714844 26.746094 34.070312 Z M 40.21875 29.464844 C 39.699219 28.566406 39.042969 27.988281 38.441406 27.617188 C 39.269531 27.632812 40.332031 27.90625 40.855469 28.636719 C 40.5625 28.851562 40.34375 29.140625 40.21875 29.464844 Z M 37.375 27.125 C 36.324219 26.777344 35.191406 26.789062 34.464844 27.164062 C 34.121094 27.339844 33.898438 27.585938 33.816406 27.871094 C 33.789062 27.972656 33.8125 28.078125 33.878906 28.15625 C 33.929688 28.21875 34 28.257812 34.074219 28.269531 C 34.125 28.332031 34.203125 28.523438 34.175781 28.75 C 34.148438 28.972656 34.03125 29.128906 33.828125 29.21875 C 33.492188 29.375 33.230469 29.25 33.074219 29.121094 C 32.753906 28.859375 32.503906 28.269531 32.671875 27.535156 C 32.910156 26.460938 33.683594 25.898438 34.292969 25.621094 C 35.332031 25.140625 36.6875 25.113281 37.523438 25.558594 C 37.59375 25.597656 37.679688 25.605469 37.757812 25.582031 C 39.054688 25.203125 40.574219 25.445312 41.824219 26.230469 C 42.730469 26.804688 43.402344 27.613281 43.773438 28.554688 C 43.070312 28.160156 42.234375 28.125 41.726562 28.242188 C 41.617188 28.265625 41.511719 28.296875 41.414062 28.335938 C 40.539062 27.039062 38.414062 26.773438 37.375 27.125 Z M 30.0625 16.066406 C 36.820312 16.066406 42.449219 20.804688 43.761719 27.214844 C 43.34375 26.621094 42.804688 26.105469 42.15625 25.695312 C 40.800781 24.84375 39.144531 24.5625 37.703125 24.941406 C 36.695312 24.46875 35.207031 24.503906 34.027344 25.046875 C 33.292969 25.386719 32.351562 26.070312 32.054688 27.398438 C 31.859375 28.273438 32.101562 29.140625 32.675781 29.609375 C 33.085938 29.945312 33.601562 30.015625 34.085938 29.792969 C 34.742188 29.5 34.902344 28.828125 34.765625 28.296875 C 34.722656 28.117188 34.648438 27.96875 34.554688 27.859375 C 34.605469 27.8125 34.671875 27.765625 34.75 27.726562 C 35.25 27.46875 36.222656 27.378906 37.273438 27.757812 C 37.898438 27.976562 38.875 28.492188 39.589844 29.648438 C 38.550781 28.976562 37.191406 28.824219 36.003906 29.363281 C 34.984375 29.824219 34.578125 30.507812 34.414062 31 C 34.292969 31.371094 34.265625 31.773438 34.328125 32.160156 C 33.824219 31.929688 33.277344 31.855469 32.75 31.96875 C 31.929688 31.078125 30.5 31.085938 29.515625 31.671875 C 29.089844 31.445312 27.699219 30.613281 25.121094 28.34375 C 25.113281 28.335938 25.101562 28.332031 25.09375 28.324219 C 24.398438 27.710938 23.640625 27.015625 22.839844 26.25 C 22.203125 25.636719 19.515625 25.792969 18.988281 26.226562 C 18.480469 26.632812 17.988281 27.074219 17.507812 27.503906 C 17.035156 27.925781 16.582031 28.328125 16.132812 28.691406 C 16.820312 21.558594 22.808594 16.066406 30.0625 16.066406 Z M 24.402344 28.554688 C 24.324219 28.652344 24.28125 28.75 24.253906 28.835938 C 24.238281 28.902344 24.230469 28.976562 24.226562 29.046875 C 23.882812 28.824219 23.507812 28.671875 23.148438 28.691406 C 22.917969 28.703125 22.710938 28.789062 22.535156 28.9375 C 22.09375 28.320312 21.640625 28.015625 21.167969 28.015625 L 21.160156 28.015625 C 20.753906 28.019531 20.371094 28.242188 20.007812 28.691406 C 19.929688 28.609375 19.828125 28.546875 19.714844 28.503906 C 19.222656 28.328125 18.550781 28.582031 17.835938 29.203125 C 17.710938 29.070312 17.550781 28.984375 17.359375 28.953125 C 17.171875 28.917969 16.964844 28.941406 16.757812 28.996094 C 17.140625 28.675781 17.527344 28.328125 17.925781 27.972656 C 18.402344 27.550781 18.890625 27.113281 19.382812 26.714844 C 19.726562 26.433594 22.046875 26.363281 22.402344 26.703125 C 23.105469 27.378906 23.777344 27.996094 24.402344 28.554688 Z M 16.066406 30.082031 C 16.304688 29.832031 16.910156 29.515625 17.25 29.574219 C 17.300781 29.582031 17.347656 29.597656 17.382812 29.640625 C 17.136719 29.898438 16.886719 30.199219 16.640625 30.539062 C 16.539062 30.679688 16.570312 30.878906 16.710938 30.980469 C 16.769531 31.019531 16.832031 31.039062 16.898438 31.039062 C 16.996094 31.039062 17.089844 30.992188 17.152344 30.910156 C 17.429688 30.523438 17.710938 30.191406 17.988281 29.921875 C 18.683594 29.226562 19.261719 29.007812 19.5 29.097656 C 19.53125 29.109375 19.621094 29.140625 19.640625 29.351562 C 19.652344 29.488281 19.75 29.601562 19.882812 29.632812 C 20.015625 29.664062 20.152344 29.605469 20.222656 29.488281 C 20.554688 28.941406 20.878906 28.648438 21.164062 28.648438 L 21.167969 28.648438 C 21.464844 28.648438 21.816406 28.960938 22.191406 29.550781 C 22.316406 29.75 22.4375 29.96875 22.550781 30.199219 C 22.625 30.355469 22.816406 30.421875 22.972656 30.347656 C 23.128906 30.269531 23.191406 30.082031 23.117188 29.925781 C 23.042969 29.773438 22.964844 29.625 22.882812 29.484375 C 22.96875 29.378906 23.0625 29.324219 23.183594 29.320312 C 23.589844 29.292969 24.230469 29.734375 24.863281 30.464844 C 24.863281 30.464844 24.863281 30.464844 24.867188 30.464844 C 24.867188 30.464844 24.867188 30.464844 24.867188 30.46875 C 24.921875 30.527344 24.972656 30.589844 25.027344 30.65625 L 25.03125 30.660156 C 25.089844 30.734375 25.179688 30.773438 25.269531 30.773438 C 25.339844 30.773438 25.414062 30.75 25.472656 30.699219 C 25.605469 30.589844 25.625 30.390625 25.511719 30.253906 C 25.453125 30.183594 25.394531 30.113281 25.351562 30.0625 C 24.925781 29.515625 24.820312 29.152344 24.863281 29.007812 C 24.863281 29 24.867188 28.984375 24.878906 28.96875 C 27.046875 30.863281 28.363281 31.734375 28.980469 32.09375 C 28.578125 32.511719 28.351562 33.042969 28.347656 33.632812 C 28.34375 34.179688 28.558594 34.632812 28.9375 34.878906 C 29.261719 35.09375 29.664062 35.117188 30.03125 34.953125 C 30.417969 34.78125 30.609375 34.332031 30.597656 33.972656 C 30.589844 33.792969 30.535156 33.632812 30.441406 33.515625 C 30.582031 33.296875 30.839844 33.28125 30.9375 33.292969 C 31.21875 33.300781 31.542969 33.476562 31.664062 33.796875 C 31.203125 34.113281 30.964844 34.632812 31.035156 35.199219 C 31.128906 35.945312 31.632812 36.25 32.039062 36.28125 C 32.085938 36.285156 32.132812 36.289062 32.175781 36.285156 C 31.777344 36.601562 31.078125 36.777344 30.359375 36.476562 C 29.148438 35.972656 28.265625 34.90625 27.484375 33.96875 C 26.90625 33.273438 26.402344 32.675781 25.84375 32.367188 C 24.523438 30.855469 22.035156 30.199219 19.640625 30.667969 C 19.742188 30.511719 19.804688 30.40625 19.8125 30.394531 C 19.898438 30.242188 19.84375 30.050781 19.691406 29.964844 C 19.542969 29.878906 19.347656 29.929688 19.261719 30.082031 C 19.261719 30.085938 18.988281 30.5625 18.632812 30.9375 C 17.761719 31.230469 16.957031 31.664062 16.234375 32.230469 C 16.125 31.535156 16.066406 30.816406 16.066406 30.082031 Z M 16.820312 34.605469 C 16.632812 34.058594 16.480469 33.5 16.363281 32.9375 C 17.117188 32.296875 17.972656 31.8125 18.902344 31.507812 C 21.320312 30.71875 24.121094 31.292969 25.414062 32.835938 C 25.414062 32.835938 25.417969 32.839844 25.417969 32.839844 C 25.417969 32.839844 25.417969 32.839844 25.421875 32.84375 C 25.53125 32.96875 25.632812 33.113281 25.726562 33.269531 C 26.5 34.605469 26.214844 35.445312 26.058594 35.746094 C 26.054688 35.75 26.054688 35.757812 26.054688 35.761719 C 25.957031 35.941406 25.816406 36.089844 25.660156 36.175781 C 25.546875 36.234375 25.367188 36.292969 25.167969 36.214844 C 24.785156 36.066406 24.75 35.714844 24.789062 35.53125 C 24.792969 35.507812 24.855469 35.292969 25.007812 35.28125 C 25.011719 35.28125 25.015625 35.28125 25.019531 35.277344 C 25.019531 35.28125 25.023438 35.28125 25.023438 35.28125 C 25.023438 35.28125 25.027344 35.28125 25.027344 35.28125 C 25.039062 35.28125 25.046875 35.277344 25.058594 35.277344 C 25.070312 35.277344 25.078125 35.277344 25.089844 35.273438 C 25.261719 35.238281 25.371094 35.074219 25.335938 34.902344 C 25.117188 33.839844 24.269531 33.042969 23.011719 32.71875 C 21.304688 32.273438 18.710938 32.703125 16.820312 34.605469 Z M 23.355469 35.332031 C 22.796875 34.835938 22.101562 34.523438 21.351562 34.40625 C 22.414062 34.222656 23.46875 34.402344 24.398438 34.9375 C 24.289062 35.0625 24.210938 35.21875 24.171875 35.40625 C 24.070312 35.894531 24.265625 36.539062 24.941406 36.804688 C 25.078125 36.855469 25.21875 36.882812 25.363281 36.882812 C 25.425781 36.882812 25.492188 36.875 25.554688 36.863281 C 25.601562 37.269531 25.578125 37.660156 25.484375 37.996094 C 25.363281 38.429688 25.136719 38.757812 24.824219 38.972656 C 24.625 39.109375 24.390625 39.191406 24.121094 39.222656 C 23.699219 39.277344 23.3125 39.09375 23.125 38.753906 C 23.050781 38.625 22.976562 38.425781 23.058594 38.183594 C 23.15625 37.878906 23.378906 37.863281 23.445312 37.875 C 23.542969 37.878906 23.667969 37.933594 23.695312 38.066406 C 23.726562 38.210938 23.851562 38.316406 24 38.320312 C 24.144531 38.289062 24.28125 38.21875 24.3125 38.074219 C 24.539062 37.09375 24.179688 36.066406 23.355469 35.332031 Z M 17.066406 35.265625 C 18.722656 33.441406 21.210938 32.902344 22.851562 33.328125 C 23.496094 33.492188 23.996094 33.789062 24.320312 34.191406 C 22.679688 33.429688 20.714844 33.582031 18.988281 34.660156 C 18.984375 34.660156 18.984375 34.660156 18.984375 34.660156 C 18.980469 34.660156 18.980469 34.664062 18.980469 34.664062 C 18.976562 34.664062 18.976562 34.664062 18.972656 34.667969 C 18.96875 34.671875 18.964844 34.671875 18.960938 34.671875 C 18.390625 35.03125 17.863281 35.476562 17.386719 36 C 17.269531 35.753906 17.164062 35.507812 17.066406 35.265625 Z M 18.046875 37.238281 C 17.929688 37.042969 17.8125 36.835938 17.691406 36.605469 C 18.164062 36.054688 18.695312 35.589844 19.277344 35.222656 C 20.863281 34.664062 22.207031 35.152344 22.933594 35.804688 C 23.410156 36.226562 23.691406 36.75 23.742188 37.296875 C 23.660156 37.265625 23.570312 37.25 23.480469 37.242188 C 23.027344 37.21875 22.613281 37.507812 22.457031 37.988281 C 22.378906 38.234375 22.375 38.492188 22.441406 38.734375 C 22.289062 38.769531 22.148438 38.761719 22.035156 38.710938 C 22.03125 38.707031 22.023438 38.707031 22.019531 38.703125 C 21.816406 38.597656 21.6875 38.355469 21.707031 38.109375 C 21.71875 37.964844 21.789062 37.707031 22.148438 37.589844 C 22.238281 37.5625 22.308594 37.496094 22.34375 37.410156 C 22.378906 37.320312 22.375 37.222656 22.328125 37.140625 C 22.027344 36.585938 21.40625 36.246094 20.625 36.207031 C 19.824219 36.167969 18.769531 36.476562 18.046875 37.238281 Z M 18.394531 37.789062 C 18.976562 37.085938 19.894531 36.800781 20.59375 36.835938 C 21 36.855469 21.335938 36.980469 21.566406 37.183594 C 21.28125 37.390625 21.101562 37.699219 21.078125 38.0625 C 21.074219 38.128906 21.074219 38.195312 21.078125 38.257812 C 20.199219 37.925781 19.371094 37.859375 18.570312 38.046875 C 18.511719 37.964844 18.453125 37.878906 18.394531 37.789062 Z M 19.089844 38.742188 C 20.433594 39.011719 21.824219 40.621094 22.976562 41.953125 C 23.074219 42.070312 23.171875 42.183594 23.269531 42.292969 C 21.664062 41.402344 20.242188 40.199219 19.089844 38.742188 Z M 24.847656 43.050781 C 24.4375 42.679688 23.960938 42.128906 23.453125 41.542969 C 22.617188 40.574219 21.660156 39.472656 20.640625 38.773438 C 20.992188 38.886719 21.359375 39.050781 21.738281 39.265625 C 22.625 39.769531 23.601562 40.542969 24.808594 41.707031 C 25.773438 42.644531 26.648438 43.335938 27.480469 43.816406 C 26.585938 43.648438 25.703125 43.394531 24.847656 43.050781 Z M 30.726562 44.035156 C 30.632812 44.042969 30.53125 44.046875 30.421875 44.046875 L 30.417969 44.046875 C 28.792969 44.027344 27.246094 43.191406 25.246094 41.257812 C 24.667969 40.699219 24.140625 40.226562 23.648438 39.828125 C 23.753906 39.847656 23.859375 39.863281 23.972656 39.863281 C 24.046875 39.863281 24.121094 39.859375 24.199219 39.847656 C 24.476562 39.816406 24.738281 39.738281 24.972656 39.613281 C 25.125 39.742188 25.320312 39.917969 25.558594 40.125 C 26.433594 40.894531 27.894531 42.179688 29.359375 43.148438 L 29.421875 43.191406 C 29.882812 43.5 30.335938 43.800781 30.785156 44.035156 C 30.769531 44.035156 30.746094 44.035156 30.726562 44.035156 Z M 32.363281 43.863281 C 31.546875 43.851562 30.722656 43.304688 29.769531 42.667969 L 29.707031 42.625 C 28.277344 41.675781 26.890625 40.457031 25.976562 39.652344 C 25.792969 39.488281 25.628906 39.347656 25.492188 39.230469 C 25.671875 39.050781 25.820312 38.832031 25.933594 38.589844 C 27.039062 39.4375 28.855469 40.800781 30.480469 41.878906 C 31.824219 42.765625 33.003906 43.292969 34.070312 43.46875 C 33.511719 43.636719 32.941406 43.769531 32.363281 43.863281 Z M 36.46875 42.496094 C 36.46875 42.496094 36.46875 42.496094 36.464844 42.5 C 36.460938 42.5 36.460938 42.5 36.457031 42.503906 C 36.445312 42.507812 36.433594 42.515625 36.421875 42.523438 C 36.367188 42.554688 36.308594 42.582031 36.253906 42.609375 C 36.234375 42.617188 36.214844 42.628906 36.210938 42.628906 C 34.773438 43.238281 33.0625 42.832031 30.828125 41.351562 C 29.128906 40.226562 27.21875 38.78125 26.144531 37.953125 C 26.226562 37.535156 26.230469 37.074219 26.15625 36.601562 C 26.234375 36.542969 26.304688 36.472656 26.371094 36.398438 C 26.445312 36.480469 26.527344 36.558594 26.605469 36.636719 C 26.617188 36.648438 26.625 36.660156 26.640625 36.671875 C 26.722656 36.753906 26.808594 36.839844 26.902344 36.925781 C 26.902344 36.925781 26.902344 36.929688 26.90625 36.929688 C 27.230469 37.234375 27.542969 37.496094 27.855469 37.742188 C 27.867188 37.75 27.871094 37.753906 27.882812 37.761719 C 30.949219 40.535156 33.222656 41.949219 35.035156 42.210938 C 35.253906 42.242188 35.457031 42.257812 35.644531 42.257812 C 36.582031 42.257812 37.09375 41.886719 37.363281 41.558594 C 37.210938 41.90625 36.929688 42.25 36.46875 42.496094 Z M 38.035156 41.554688 C 38.132812 41.246094 38.160156 40.945312 38.136719 40.683594 C 38.078125 40.050781 37.742188 39.574219 37.246094 39.40625 C 37.242188 39.40625 37.238281 39.40625 37.234375 39.402344 C 37.050781 39.335938 36.832031 39.316406 36.605469 39.347656 C 36.484375 39.367188 36.386719 39.449219 36.351562 39.5625 C 36.3125 39.675781 36.34375 39.800781 36.425781 39.882812 C 36.507812 39.96875 36.5 40.105469 36.457031 40.203125 C 36.425781 40.277344 36.328125 40.445312 36.03125 40.441406 C 35.75 40.429688 35.53125 40.144531 35.515625 39.757812 C 35.5 39.546875 35.554688 39.328125 35.667969 39.140625 C 35.714844 39.082031 35.757812 39.027344 35.789062 38.972656 L 35.855469 38.902344 C 36.429688 38.335938 37.5 38.238281 38.339844 38.667969 C 38.347656 38.671875 38.355469 38.675781 38.367188 38.679688 C 38.800781 38.90625 39.351562 39.363281 39.617188 40.277344 C 39.121094 40.742188 38.589844 41.171875 38.035156 41.554688 Z M 40.109375 39.78125 C 39.875 39.195312 39.511719 38.710938 39.039062 38.363281 C 41.808594 36.097656 41.554688 33.066406 41.066406 31.578125 C 41.070312 31.582031 41.074219 31.582031 41.082031 31.585938 C 41.621094 31.832031 42.023438 32.496094 42.1875 33.410156 C 42.496094 35.117188 41.96875 37.679688 40.109375 39.78125 Z M 43.109375 35.113281 C 43.105469 35.121094 43.105469 35.128906 43.101562 35.136719 C 42.984375 35.445312 42.851562 35.75 42.710938 36.046875 C 42.929688 35.039062 42.949219 34.085938 42.808594 33.296875 C 42.667969 32.515625 42.375 31.886719 41.96875 31.460938 C 42.125 31.375 42.261719 31.25 42.367188 31.09375 C 42.507812 30.871094 42.554688 30.628906 42.507812 30.402344 C 42.570312 30.425781 42.621094 30.457031 42.65625 30.480469 C 43.171875 30.839844 43.929688 32.265625 43.109375 35.113281 Z M 43.015625 29.964844 C 42.621094 29.691406 42.175781 29.667969 41.851562 29.910156 C 41.777344 29.964844 41.730469 30.046875 41.722656 30.132812 C 41.714844 30.222656 41.746094 30.3125 41.804688 30.378906 C 41.914062 30.492188 41.921875 30.617188 41.835938 30.746094 C 41.742188 30.898438 41.53125 31.019531 41.328125 30.949219 C 40.976562 30.828125 40.757812 30.542969 40.730469 30.164062 C 40.699219 29.703125 40.96875 29.253906 41.429688 29.015625 C 41.558594 28.945312 41.703125 28.894531 41.867188 28.855469 C 42.449219 28.722656 43.523438 28.882812 44.042969 29.625 C 44.050781 29.769531 44.054688 29.914062 44.054688 30.0625 C 44.054688 30.582031 44.023438 31.09375 43.96875 31.605469 C 43.789062 30.820312 43.441406 30.257812 43.015625 29.964844 Z M 26.113281 31.566406 C 26.171875 31.609375 26.238281 31.632812 26.304688 31.632812 C 26.398438 31.632812 26.492188 31.589844 26.554688 31.507812 C 26.660156 31.371094 26.636719 31.171875 26.5 31.066406 C 26.441406 31.023438 26.40625 30.992188 26.402344 30.984375 C 26.28125 30.863281 26.082031 30.863281 25.960938 30.984375 C 25.835938 31.109375 25.835938 31.308594 25.957031 31.433594 C 25.957031 31.433594 26.011719 31.488281 26.113281 31.566406 " fill-opacity="1" fill-rule="nonzero"/></g><g fill="#000000" fill-opacity="1"><g transform="translate(14.496141, 25.994345)"><g><path d="M -1.703125 -0.828125 C -1.765625 -0.847656 -1.804688 -0.882812 -1.828125 -0.9375 C -1.847656 -1 -1.847656 -1.054688 -1.828125 -1.109375 L -1.640625 -1.671875 C -1.597656 -1.828125 -1.53125 -1.960938 -1.4375 -2.078125 C -1.34375 -2.191406 -1.234375 -2.28125 -1.109375 -2.34375 C -0.992188 -2.40625 -0.867188 -2.441406 -0.734375 -2.453125 C -0.597656 -2.472656 -0.460938 -2.457031 -0.328125 -2.40625 L -0.3125 -2.40625 C -0.164062 -2.363281 -0.0390625 -2.296875 0.0625 -2.203125 C 0.164062 -2.109375 0.25 -2 0.3125 -1.875 C 0.375 -1.75 0.40625 -1.613281 0.40625 -1.46875 C 0.40625 -1.320312 0.382812 -1.171875 0.34375 -1.015625 L 0.15625 -0.453125 C 0.132812 -0.398438 0.09375 -0.359375 0.03125 -0.328125 C -0.03125 -0.296875 -0.0859375 -0.289062 -0.140625 -0.3125 Z M -0.0625 -1.140625 C -0.03125 -1.234375 -0.015625 -1.320312 -0.015625 -1.40625 C -0.015625 -1.488281 -0.0351562 -1.566406 -0.078125 -1.640625 C -0.117188 -1.710938 -0.171875 -1.769531 -0.234375 -1.8125 C -0.296875 -1.863281 -0.375 -1.90625 -0.46875 -1.9375 C -0.550781 -1.96875 -0.632812 -1.984375 -0.71875 -1.984375 C -0.800781 -1.984375 -0.878906 -1.960938 -0.953125 -1.921875 C -1.023438 -1.890625 -1.085938 -1.84375 -1.140625 -1.78125 C -1.191406 -1.71875 -1.234375 -1.640625 -1.265625 -1.546875 L -1.390625 -1.21875 L -0.1875 -0.8125 Z M -0.0625 -1.140625 "/></g></g></g><g fill="#000000" fill-opacity="1"><g transform="translate(15.457462, 23.338825)"><g><path d="M -1.59375 -1.0625 C -1.644531 -1.09375 -1.679688 -1.140625 -1.703125 -1.203125 C -1.722656 -1.265625 -1.71875 -1.328125 -1.6875 -1.390625 C -1.65625 -1.441406 -1.609375 -1.476562 -1.546875 -1.5 C -1.484375 -1.519531 -1.425781 -1.515625 -1.375 -1.484375 L 0.125 -0.75 C 0.195312 -0.71875 0.238281 -0.671875 0.25 -0.609375 C 0.269531 -0.554688 0.265625 -0.503906 0.234375 -0.453125 C 0.203125 -0.390625 0.15625 -0.34375 0.09375 -0.3125 C 0.0390625 -0.289062 -0.0195312 -0.296875 -0.09375 -0.328125 Z M -1.59375 -1.0625 "/></g></g></g><g fill="#000000" fill-opacity="1"><g transform="translate(16.121151, 21.991633)"><g><path d="M -1.453125 -1.234375 C -1.503906 -1.265625 -1.535156 -1.3125 -1.546875 -1.375 C -1.554688 -1.445312 -1.546875 -1.507812 -1.515625 -1.5625 C -1.484375 -1.613281 -1.4375 -1.644531 -1.375 -1.65625 C -1.3125 -1.675781 -1.253906 -1.671875 -1.203125 -1.640625 L 0.03125 -0.84375 L 0.484375 -1.546875 C 0.523438 -1.597656 0.570312 -1.628906 0.625 -1.640625 C 0.6875 -1.648438 0.742188 -1.640625 0.796875 -1.609375 C 0.835938 -1.578125 0.863281 -1.53125 0.875 -1.46875 C 0.894531 -1.414062 0.882812 -1.363281 0.84375 -1.3125 L 0.265625 -0.40625 C 0.234375 -0.351562 0.179688 -0.316406 0.109375 -0.296875 C 0.046875 -0.285156 -0.0078125 -0.296875 -0.0625 -0.328125 Z M -1.453125 -1.234375 "/></g></g></g><g fill="#000000" fill-opacity="1"><g transform="translate(17.416259, 20.057266)"><g><path d="M -1.25 -1.4375 C -1.289062 -1.476562 -1.316406 -1.53125 -1.328125 -1.59375 C -1.335938 -1.664062 -1.320312 -1.722656 -1.28125 -1.765625 C -1.238281 -1.816406 -1.179688 -1.84375 -1.109375 -1.84375 C -1.046875 -1.851562 -0.992188 -1.835938 -0.953125 -1.796875 L 0.15625 -0.828125 L 0.71875 -1.453125 C 0.757812 -1.503906 0.804688 -1.53125 0.859375 -1.53125 C 0.921875 -1.539062 0.972656 -1.523438 1.015625 -1.484375 C 1.054688 -1.441406 1.078125 -1.390625 1.078125 -1.328125 C 1.085938 -1.273438 1.070312 -1.222656 1.03125 -1.171875 L 0.3125 -0.359375 C 0.269531 -0.316406 0.21875 -0.289062 0.15625 -0.28125 C 0.09375 -0.28125 0.0390625 -0.300781 0 -0.34375 Z M -1.25 -1.4375 "/></g></g></g><g fill="#000000" fill-opacity="1"><g transform="translate(18.949485, 18.325888)"><g><path d="M -0.359375 -2.46875 C -0.242188 -2.5625 -0.117188 -2.628906 0.015625 -2.671875 C 0.160156 -2.722656 0.300781 -2.738281 0.4375 -2.71875 C 0.582031 -2.707031 0.71875 -2.671875 0.84375 -2.609375 C 0.976562 -2.546875 1.09375 -2.457031 1.1875 -2.34375 L 1.203125 -2.328125 C 1.296875 -2.210938 1.359375 -2.085938 1.390625 -1.953125 C 1.421875 -1.816406 1.425781 -1.675781 1.40625 -1.53125 C 1.394531 -1.394531 1.351562 -1.257812 1.28125 -1.125 C 1.21875 -0.988281 1.125 -0.867188 1 -0.765625 C 0.875 -0.671875 0.738281 -0.601562 0.59375 -0.5625 C 0.457031 -0.519531 0.320312 -0.503906 0.1875 -0.515625 C 0.0507812 -0.523438 -0.078125 -0.5625 -0.203125 -0.625 C -0.328125 -0.6875 -0.4375 -0.78125 -0.53125 -0.90625 C -0.632812 -1.03125 -0.707031 -1.160156 -0.75 -1.296875 C -0.789062 -1.429688 -0.800781 -1.566406 -0.78125 -1.703125 C -0.769531 -1.847656 -0.726562 -1.984375 -0.65625 -2.109375 C -0.59375 -2.242188 -0.492188 -2.363281 -0.359375 -2.46875 Z M 0.75 -1.109375 C 0.820312 -1.171875 0.875 -1.238281 0.90625 -1.3125 C 0.945312 -1.382812 0.96875 -1.457031 0.96875 -1.53125 C 0.976562 -1.613281 0.96875 -1.695312 0.9375 -1.78125 C 0.914062 -1.863281 0.878906 -1.941406 0.828125 -2.015625 C 0.765625 -2.085938 0.691406 -2.144531 0.609375 -2.1875 C 0.535156 -2.226562 0.457031 -2.253906 0.375 -2.265625 C 0.289062 -2.273438 0.207031 -2.265625 0.125 -2.234375 C 0.0507812 -2.210938 -0.0195312 -2.171875 -0.09375 -2.109375 C -0.15625 -2.054688 -0.207031 -1.992188 -0.25 -1.921875 C -0.289062 -1.859375 -0.316406 -1.785156 -0.328125 -1.703125 C -0.335938 -1.617188 -0.328125 -1.535156 -0.296875 -1.453125 C -0.265625 -1.367188 -0.222656 -1.296875 -0.171875 -1.234375 L -0.15625 -1.21875 C -0.101562 -1.15625 -0.0390625 -1.097656 0.03125 -1.046875 C 0.101562 -1.003906 0.179688 -0.976562 0.265625 -0.96875 C 0.347656 -0.96875 0.429688 -0.972656 0.515625 -0.984375 C 0.597656 -1.003906 0.675781 -1.046875 0.75 -1.109375 Z M 0.75 -1.109375 "/></g></g></g><g fill="#000000" fill-opacity="1"><g transform="translate(21.297158, 16.47296)"><g><path d="M 0.125 -0.296875 L -0.6875 -1.765625 C -0.71875 -1.828125 -0.722656 -1.882812 -0.703125 -1.9375 C -0.679688 -2 -0.644531 -2.046875 -0.59375 -2.078125 L -0.546875 -2.09375 C -0.503906 -2.125 -0.460938 -2.132812 -0.421875 -2.125 C -0.378906 -2.125 -0.332031 -2.117188 -0.28125 -2.109375 L 1.0625 -1.515625 L 0.546875 -2.453125 C 0.515625 -2.503906 0.503906 -2.5625 0.515625 -2.625 C 0.535156 -2.6875 0.570312 -2.734375 0.625 -2.765625 C 0.675781 -2.796875 0.734375 -2.800781 0.796875 -2.78125 C 0.867188 -2.769531 0.921875 -2.738281 0.953125 -2.6875 L 1.75 -1.21875 C 1.78125 -1.164062 1.785156 -1.101562 1.765625 -1.03125 C 1.742188 -0.96875 1.707031 -0.921875 1.65625 -0.890625 L 1.640625 -0.890625 C 1.585938 -0.859375 1.539062 -0.847656 1.5 -0.859375 C 1.46875 -0.867188 1.421875 -0.878906 1.359375 -0.890625 L -0.03125 -1.5 L 0.515625 -0.515625 C 0.546875 -0.460938 0.550781 -0.40625 0.53125 -0.34375 C 0.507812 -0.289062 0.472656 -0.25 0.421875 -0.21875 C 0.367188 -0.1875 0.3125 -0.175781 0.25 -0.1875 C 0.195312 -0.207031 0.15625 -0.242188 0.125 -0.296875 Z M 0.125 -0.296875 "/></g></g></g><g fill="#000000" fill-opacity="1"><g transform="translate(23.831594, 15.169885)"><g/></g></g><g fill="#000000" fill-opacity="1"><g transform="translate(25.123421, 14.65783)"><g><path d="M -0.203125 -1.875 C -0.210938 -1.9375 -0.203125 -1.992188 -0.171875 -2.046875 C -0.140625 -2.097656 -0.09375 -2.132812 -0.03125 -2.15625 L 0.6875 -2.328125 C 0.78125 -2.347656 0.878906 -2.359375 0.984375 -2.359375 C 1.085938 -2.359375 1.175781 -2.335938 1.25 -2.296875 C 1.320312 -2.253906 1.390625 -2.195312 1.453125 -2.125 C 1.523438 -2.050781 1.570312 -1.957031 1.59375 -1.84375 C 1.632812 -1.6875 1.632812 -1.546875 1.59375 -1.421875 C 1.550781 -1.304688 1.46875 -1.207031 1.34375 -1.125 L 1.75 -0.828125 C 1.78125 -0.796875 1.804688 -0.769531 1.828125 -0.75 C 1.847656 -0.738281 1.863281 -0.710938 1.875 -0.671875 C 1.894531 -0.609375 1.882812 -0.550781 1.84375 -0.5 C 1.800781 -0.457031 1.757812 -0.425781 1.71875 -0.40625 C 1.664062 -0.394531 1.617188 -0.394531 1.578125 -0.40625 C 1.535156 -0.414062 1.492188 -0.441406 1.453125 -0.484375 L 0.890625 -0.921875 L 0.546875 -0.828125 L 0.65625 -0.390625 C 0.664062 -0.316406 0.648438 -0.253906 0.609375 -0.203125 C 0.578125 -0.148438 0.53125 -0.117188 0.46875 -0.109375 C 0.40625 -0.0859375 0.347656 -0.09375 0.296875 -0.125 C 0.242188 -0.15625 0.210938 -0.207031 0.203125 -0.28125 Z M 0.296875 -1.8125 L 0.4375 -1.21875 L 0.890625 -1.328125 C 0.992188 -1.359375 1.066406 -1.40625 1.109375 -1.46875 C 1.160156 -1.539062 1.175781 -1.617188 1.15625 -1.703125 L 1.140625 -1.71875 C 1.117188 -1.8125 1.070312 -1.875 1 -1.90625 C 0.925781 -1.945312 0.835938 -1.953125 0.734375 -1.921875 Z M 0.296875 -1.8125 "/></g></g></g><g fill="#000000" fill-opacity="1"><g transform="translate(27.667482, 14.046603)"><g><path d="M 1.140625 -2.234375 C 1.296875 -2.242188 1.441406 -2.222656 1.578125 -2.171875 C 1.710938 -2.128906 1.832031 -2.0625 1.9375 -1.96875 C 2.050781 -1.875 2.140625 -1.765625 2.203125 -1.640625 C 2.265625 -1.515625 2.300781 -1.378906 2.3125 -1.234375 L 2.3125 -1.21875 C 2.320312 -1.070312 2.300781 -0.929688 2.25 -0.796875 C 2.207031 -0.660156 2.140625 -0.539062 2.046875 -0.4375 C 1.953125 -0.332031 1.835938 -0.242188 1.703125 -0.171875 C 1.578125 -0.109375 1.429688 -0.0703125 1.265625 -0.0625 C 1.109375 -0.0507812 0.957031 -0.0664062 0.8125 -0.109375 C 0.675781 -0.160156 0.554688 -0.226562 0.453125 -0.3125 C 0.347656 -0.394531 0.257812 -0.5 0.1875 -0.625 C 0.125 -0.757812 0.0859375 -0.90625 0.078125 -1.0625 C 0.0664062 -1.21875 0.0859375 -1.359375 0.140625 -1.484375 C 0.191406 -1.617188 0.257812 -1.738281 0.34375 -1.84375 C 0.4375 -1.957031 0.550781 -2.046875 0.6875 -2.109375 C 0.820312 -2.179688 0.972656 -2.222656 1.140625 -2.234375 Z M 1.25 -0.484375 C 1.34375 -0.484375 1.425781 -0.5 1.5 -0.53125 C 1.582031 -0.570312 1.644531 -0.625 1.6875 -0.6875 C 1.738281 -0.757812 1.773438 -0.832031 1.796875 -0.90625 C 1.828125 -0.988281 1.835938 -1.078125 1.828125 -1.171875 C 1.828125 -1.265625 1.804688 -1.347656 1.765625 -1.421875 C 1.734375 -1.503906 1.6875 -1.570312 1.625 -1.625 C 1.5625 -1.6875 1.488281 -1.726562 1.40625 -1.75 C 1.320312 -1.78125 1.234375 -1.796875 1.140625 -1.796875 C 1.054688 -1.785156 0.976562 -1.757812 0.90625 -1.71875 C 0.832031 -1.6875 0.769531 -1.632812 0.71875 -1.5625 C 0.664062 -1.5 0.625 -1.425781 0.59375 -1.34375 C 0.570312 -1.269531 0.5625 -1.191406 0.5625 -1.109375 L 0.5625 -1.09375 C 0.570312 -1.007812 0.59375 -0.925781 0.625 -0.84375 C 0.664062 -0.757812 0.71875 -0.691406 0.78125 -0.640625 C 0.84375 -0.585938 0.910156 -0.546875 0.984375 -0.515625 C 1.066406 -0.484375 1.15625 -0.472656 1.25 -0.484375 Z M 1.25 -0.484375 "/></g></g></g><g fill="#000000" fill-opacity="1"><g transform="translate(30.664445, 13.903117)"><g><path d="M 0.40625 -0.578125 C 0.4375 -0.578125 0.460938 -0.566406 0.484375 -0.546875 C 0.503906 -0.535156 0.519531 -0.523438 0.53125 -0.515625 C 0.601562 -0.453125 0.679688 -0.398438 0.765625 -0.359375 C 0.847656 -0.316406 0.941406 -0.289062 1.046875 -0.28125 C 1.140625 -0.269531 1.210938 -0.28125 1.265625 -0.3125 C 1.328125 -0.34375 1.363281 -0.390625 1.375 -0.453125 C 1.375 -0.484375 1.367188 -0.507812 1.359375 -0.53125 C 1.347656 -0.5625 1.328125 -0.585938 1.296875 -0.609375 C 1.273438 -0.640625 1.234375 -0.664062 1.171875 -0.6875 C 1.117188 -0.707031 1.050781 -0.726562 0.96875 -0.75 C 0.875 -0.789062 0.78125 -0.832031 0.6875 -0.875 C 0.601562 -0.914062 0.535156 -0.960938 0.484375 -1.015625 C 0.429688 -1.066406 0.390625 -1.128906 0.359375 -1.203125 C 0.328125 -1.273438 0.316406 -1.363281 0.328125 -1.46875 L 0.328125 -1.484375 C 0.335938 -1.566406 0.363281 -1.644531 0.40625 -1.71875 C 0.457031 -1.789062 0.519531 -1.851562 0.59375 -1.90625 C 0.664062 -1.957031 0.742188 -1.988281 0.828125 -2 C 0.921875 -2.019531 1.019531 -2.023438 1.125 -2.015625 C 1.382812 -1.992188 1.601562 -1.910156 1.78125 -1.765625 C 1.789062 -1.753906 1.804688 -1.726562 1.828125 -1.6875 C 1.847656 -1.65625 1.851562 -1.617188 1.84375 -1.578125 C 1.84375 -1.515625 1.820312 -1.46875 1.78125 -1.4375 C 1.738281 -1.40625 1.691406 -1.394531 1.640625 -1.40625 C 1.597656 -1.40625 1.554688 -1.414062 1.515625 -1.4375 C 1.378906 -1.539062 1.238281 -1.597656 1.09375 -1.609375 C 1 -1.617188 0.925781 -1.609375 0.875 -1.578125 C 0.832031 -1.546875 0.8125 -1.507812 0.8125 -1.46875 C 0.800781 -1.4375 0.800781 -1.40625 0.8125 -1.375 C 0.820312 -1.351562 0.84375 -1.328125 0.875 -1.296875 C 0.90625 -1.273438 0.945312 -1.253906 1 -1.234375 C 1.0625 -1.210938 1.140625 -1.179688 1.234375 -1.140625 C 1.335938 -1.109375 1.425781 -1.066406 1.5 -1.015625 C 1.582031 -0.972656 1.644531 -0.925781 1.6875 -0.875 C 1.738281 -0.820312 1.773438 -0.757812 1.796875 -0.6875 C 1.816406 -0.625 1.820312 -0.546875 1.8125 -0.453125 C 1.800781 -0.347656 1.769531 -0.253906 1.71875 -0.171875 C 1.675781 -0.0976562 1.617188 -0.0390625 1.546875 0 C 1.484375 0.0507812 1.40625 0.0859375 1.3125 0.109375 C 1.21875 0.128906 1.113281 0.132812 1 0.125 C 0.863281 0.113281 0.726562 0.078125 0.59375 0.015625 C 0.46875 -0.0351562 0.34375 -0.109375 0.21875 -0.203125 C 0.207031 -0.222656 0.191406 -0.25 0.171875 -0.28125 C 0.160156 -0.3125 0.15625 -0.34375 0.15625 -0.375 C 0.164062 -0.4375 0.191406 -0.484375 0.234375 -0.515625 C 0.285156 -0.554688 0.34375 -0.578125 0.40625 -0.578125 Z M 0.40625 -0.578125 "/></g></g></g><g fill="#000000" fill-opacity="1"><g transform="translate(33.035212, 14.169715)"><g><path d="M 0.3125 -0.171875 L 0.71875 -1.75 C 0.726562 -1.8125 0.757812 -1.859375 0.8125 -1.890625 C 0.863281 -1.921875 0.921875 -1.925781 0.984375 -1.90625 L 2.109375 -1.625 C 2.171875 -1.601562 2.210938 -1.570312 2.234375 -1.53125 C 2.265625 -1.488281 2.273438 -1.4375 2.265625 -1.375 C 2.253906 -1.320312 2.222656 -1.28125 2.171875 -1.25 C 2.128906 -1.21875 2.078125 -1.210938 2.015625 -1.234375 L 1.125 -1.46875 L 1.015625 -1.046875 L 1.78125 -0.84375 C 1.832031 -0.832031 1.875 -0.800781 1.90625 -0.75 C 1.9375 -0.707031 1.945312 -0.660156 1.9375 -0.609375 C 1.914062 -0.546875 1.878906 -0.5 1.828125 -0.46875 C 1.785156 -0.445312 1.738281 -0.441406 1.6875 -0.453125 L 0.921875 -0.65625 L 0.796875 -0.21875 L 1.703125 0.015625 C 1.765625 0.0351562 1.8125 0.0664062 1.84375 0.109375 C 1.875 0.160156 1.878906 0.210938 1.859375 0.265625 C 1.847656 0.328125 1.816406 0.367188 1.765625 0.390625 C 1.722656 0.421875 1.671875 0.425781 1.609375 0.40625 L 0.46875 0.125 C 0.40625 0.101562 0.359375 0.0625 0.328125 0 C 0.296875 -0.0507812 0.289062 -0.109375 0.3125 -0.171875 Z M 0.3125 -0.171875 "/></g></g></g><g fill="#000000" fill-opacity="1"><g transform="translate(35.418103, 14.802394)"><g><path d="M 0.3125 -0.09375 L 0.984375 -1.625 C 1.015625 -1.6875 1.054688 -1.726562 1.109375 -1.75 C 1.171875 -1.769531 1.226562 -1.765625 1.28125 -1.734375 L 1.328125 -1.71875 C 1.378906 -1.695312 1.414062 -1.664062 1.4375 -1.625 C 1.457031 -1.582031 1.476562 -1.539062 1.5 -1.5 L 1.84375 -0.078125 L 2.28125 -1.0625 C 2.300781 -1.113281 2.34375 -1.148438 2.40625 -1.171875 C 2.46875 -1.203125 2.53125 -1.203125 2.59375 -1.171875 C 2.644531 -1.148438 2.679688 -1.109375 2.703125 -1.046875 C 2.722656 -0.984375 2.722656 -0.925781 2.703125 -0.875 L 2.03125 0.65625 C 2 0.71875 1.953125 0.757812 1.890625 0.78125 C 1.835938 0.800781 1.785156 0.800781 1.734375 0.78125 L 1.71875 0.765625 C 1.65625 0.742188 1.613281 0.710938 1.59375 0.671875 C 1.582031 0.640625 1.5625 0.597656 1.53125 0.546875 L 1.171875 -0.9375 L 0.71875 0.09375 C 0.695312 0.15625 0.660156 0.195312 0.609375 0.21875 C 0.554688 0.238281 0.5 0.238281 0.4375 0.21875 C 0.382812 0.1875 0.34375 0.140625 0.3125 0.078125 C 0.289062 0.0234375 0.289062 -0.03125 0.3125 -0.09375 Z M 0.3125 -0.09375 "/></g></g></g><g fill="#000000" fill-opacity="1"><g transform="translate(37.978963, 15.984793)"><g><path d="M 1.25 -1.4375 C 1.28125 -1.488281 1.328125 -1.519531 1.390625 -1.53125 C 1.460938 -1.539062 1.523438 -1.53125 1.578125 -1.5 C 1.628906 -1.46875 1.660156 -1.421875 1.671875 -1.359375 C 1.679688 -1.296875 1.671875 -1.238281 1.640625 -1.1875 L 1.25 -0.59375 L 2.421875 -0.828125 C 2.460938 -0.828125 2.5 -0.828125 2.53125 -0.828125 C 2.570312 -0.828125 2.609375 -0.816406 2.640625 -0.796875 C 2.691406 -0.753906 2.71875 -0.703125 2.71875 -0.640625 C 2.726562 -0.585938 2.71875 -0.539062 2.6875 -0.5 C 2.664062 -0.457031 2.640625 -0.429688 2.609375 -0.421875 C 2.585938 -0.410156 2.5625 -0.40625 2.53125 -0.40625 L 1.71875 -0.265625 L 1.8125 0.75 C 1.820312 0.789062 1.820312 0.820312 1.8125 0.84375 C 1.8125 0.875 1.800781 0.90625 1.78125 0.9375 C 1.75 0.988281 1.703125 1.019531 1.640625 1.03125 C 1.578125 1.039062 1.515625 1.023438 1.453125 0.984375 C 1.421875 0.960938 1.398438 0.929688 1.390625 0.890625 C 1.378906 0.859375 1.367188 0.828125 1.359375 0.796875 L 1.3125 -0.1875 L 0.953125 -0.140625 L 0.71875 0.203125 C 0.675781 0.265625 0.625 0.300781 0.5625 0.3125 C 0.5 0.320312 0.441406 0.3125 0.390625 0.28125 C 0.335938 0.25 0.300781 0.203125 0.28125 0.140625 C 0.269531 0.078125 0.285156 0.015625 0.328125 -0.046875 Z M 1.25 -1.4375 "/></g></g></g><g fill="#000000" fill-opacity="1"><g transform="translate(40.121101, 17.444742)"><g><path d="M 1.46875 -1.203125 C 1.507812 -1.242188 1.554688 -1.265625 1.609375 -1.265625 C 1.671875 -1.265625 1.726562 -1.242188 1.78125 -1.203125 L 2.3125 -0.703125 C 2.394531 -0.628906 2.460938 -0.550781 2.515625 -0.46875 C 2.566406 -0.382812 2.597656 -0.296875 2.609375 -0.203125 C 2.617188 -0.117188 2.609375 -0.03125 2.578125 0.0625 C 2.554688 0.15625 2.503906 0.242188 2.421875 0.328125 C 2.304688 0.453125 2.1875 0.523438 2.0625 0.546875 C 1.945312 0.566406 1.816406 0.554688 1.671875 0.515625 L 1.640625 1.015625 C 1.640625 1.054688 1.632812 1.085938 1.625 1.109375 C 1.625 1.140625 1.609375 1.171875 1.578125 1.203125 C 1.535156 1.253906 1.484375 1.273438 1.421875 1.265625 C 1.367188 1.265625 1.320312 1.25 1.28125 1.21875 C 1.238281 1.175781 1.210938 1.132812 1.203125 1.09375 C 1.191406 1.0625 1.191406 1.019531 1.203125 0.96875 L 1.25 0.234375 L 0.984375 -0.015625 L 0.6875 0.328125 C 0.632812 0.378906 0.570312 0.40625 0.5 0.40625 C 0.4375 0.40625 0.382812 0.382812 0.34375 0.34375 C 0.289062 0.300781 0.265625 0.25 0.265625 0.1875 C 0.265625 0.125 0.289062 0.0664062 0.34375 0.015625 Z M 1.671875 -0.75 L 1.265625 -0.3125 L 1.609375 0.015625 C 1.691406 0.0859375 1.769531 0.125 1.84375 0.125 C 1.925781 0.132812 2 0.101562 2.0625 0.03125 C 2.132812 -0.0390625 2.160156 -0.117188 2.140625 -0.203125 C 2.128906 -0.285156 2.082031 -0.363281 2 -0.4375 Z M 1.671875 -0.75 "/></g></g></g><g fill="#000000" fill-opacity="1"><g transform="translate(42.02188, 19.250332)"><g><path d="M 0.3125 -0.078125 L 2.078125 -0.5 C 2.128906 -0.507812 2.1875 -0.507812 2.25 -0.5 C 2.3125 -0.488281 2.363281 -0.457031 2.40625 -0.40625 L 2.40625 -0.390625 C 2.445312 -0.335938 2.460938 -0.28125 2.453125 -0.21875 C 2.453125 -0.15625 2.441406 -0.0976562 2.421875 -0.046875 L 1.546875 1.515625 C 1.523438 1.566406 1.503906 1.597656 1.484375 1.609375 C 1.441406 1.648438 1.390625 1.664062 1.328125 1.65625 C 1.265625 1.65625 1.21875 1.628906 1.1875 1.578125 C 1.15625 1.535156 1.140625 1.488281 1.140625 1.4375 C 1.140625 1.394531 1.148438 1.351562 1.171875 1.3125 L 1.359375 1 L 0.796875 0.265625 L 0.421875 0.34375 C 0.378906 0.351562 0.332031 0.351562 0.28125 0.34375 C 0.238281 0.332031 0.207031 0.3125 0.1875 0.28125 C 0.144531 0.226562 0.128906 0.171875 0.140625 0.109375 C 0.148438 0.0546875 0.175781 0.0078125 0.21875 -0.03125 C 0.226562 -0.0390625 0.238281 -0.046875 0.25 -0.046875 C 0.269531 -0.0546875 0.289062 -0.0664062 0.3125 -0.078125 Z M 1.21875 0.15625 L 1.5625 0.609375 L 1.953125 -0.0625 Z M 1.21875 0.15625 "/></g></g></g><g fill="#000000" fill-opacity="1"><g transform="translate(43.667818, 21.447748)"><g><path d="M 0.296875 0.125 L 1.765625 -0.65625 C 1.835938 -0.6875 1.90625 -0.691406 1.96875 -0.671875 C 2.03125 -0.648438 2.070312 -0.613281 2.09375 -0.5625 L 2.125 -0.515625 C 2.144531 -0.460938 2.148438 -0.410156 2.140625 -0.359375 C 2.128906 -0.316406 2.125 -0.28125 2.125 -0.25 L 1.484375 1.09375 L 2.4375 0.59375 C 2.5 0.5625 2.554688 0.554688 2.609375 0.578125 C 2.671875 0.597656 2.71875 0.632812 2.75 0.6875 C 2.78125 0.75 2.785156 0.804688 2.765625 0.859375 C 2.753906 0.921875 2.71875 0.96875 2.65625 1 L 1.171875 1.78125 C 1.117188 1.800781 1.0625 1.800781 1 1.78125 C 0.9375 1.769531 0.890625 1.734375 0.859375 1.671875 L 0.859375 1.65625 C 0.828125 1.601562 0.816406 1.554688 0.828125 1.515625 C 0.835938 1.484375 0.847656 1.4375 0.859375 1.375 L 1.5 0.015625 L 0.515625 0.53125 C 0.453125 0.5625 0.390625 0.566406 0.328125 0.546875 C 0.273438 0.523438 0.234375 0.484375 0.203125 0.421875 C 0.179688 0.367188 0.175781 0.3125 0.1875 0.25 C 0.195312 0.195312 0.234375 0.15625 0.296875 0.125 Z M 0.296875 0.125 "/></g></g></g><g fill="#000000" fill-opacity="1"><g transform="translate(44.932651, 23.969264)"><g><path d="M 0.234375 0.09375 L 0.25 0.09375 C 0.320312 0.0703125 0.398438 0.078125 0.484375 0.109375 L 2.03125 0.765625 L 1.734375 -0.125 C 1.710938 -0.175781 1.710938 -0.226562 1.734375 -0.28125 C 1.765625 -0.34375 1.804688 -0.378906 1.859375 -0.390625 C 1.921875 -0.410156 1.972656 -0.40625 2.015625 -0.375 C 2.054688 -0.34375 2.085938 -0.300781 2.109375 -0.25 L 2.53125 1.03125 C 2.539062 1.082031 2.535156 1.128906 2.515625 1.171875 C 2.503906 1.222656 2.46875 1.257812 2.40625 1.28125 C 2.320312 1.300781 2.242188 1.296875 2.171875 1.265625 L 0.625 0.625 L 0.9375 1.546875 C 0.945312 1.597656 0.9375 1.644531 0.90625 1.6875 C 0.882812 1.738281 0.847656 1.773438 0.796875 1.796875 C 0.742188 1.816406 0.691406 1.8125 0.640625 1.78125 C 0.585938 1.757812 0.554688 1.722656 0.546875 1.671875 L 0.109375 0.359375 C 0.0976562 0.304688 0.101562 0.253906 0.125 0.203125 C 0.15625 0.148438 0.191406 0.113281 0.234375 0.09375 Z M 0.234375 0.09375 "/></g></g></g><g fill="#000000" fill-opacity="1"><g transform="translate(16.442572, 41.562823)"><g><path d="M 1.21875 -1.09375 C 1.257812 -1.132812 1.300781 -1.15625 1.34375 -1.15625 C 1.394531 -1.15625 1.441406 -1.132812 1.484375 -1.09375 C 1.515625 -1.0625 1.535156 -1.019531 1.546875 -0.96875 C 1.554688 -0.925781 1.550781 -0.890625 1.53125 -0.859375 L 1 0.1875 L 2.03125 -0.328125 C 2.082031 -0.347656 2.128906 -0.359375 2.171875 -0.359375 C 2.222656 -0.359375 2.265625 -0.347656 2.296875 -0.328125 L 2.3125 -0.296875 C 2.351562 -0.265625 2.375 -0.222656 2.375 -0.171875 C 2.382812 -0.117188 2.367188 -0.0703125 2.328125 -0.03125 L 1.84375 1.015625 L 2.875 0.46875 C 2.914062 0.457031 2.953125 0.453125 2.984375 0.453125 C 3.023438 0.453125 3.0625 0.472656 3.09375 0.515625 C 3.132812 0.546875 3.160156 0.585938 3.171875 0.640625 C 3.179688 0.703125 3.164062 0.753906 3.125 0.796875 C 3.113281 0.796875 3.097656 0.796875 3.078125 0.796875 C 3.066406 0.804688 3.054688 0.816406 3.046875 0.828125 L 1.671875 1.484375 C 1.628906 1.492188 1.582031 1.492188 1.53125 1.484375 C 1.488281 1.484375 1.453125 1.472656 1.421875 1.453125 L 1.390625 1.421875 C 1.359375 1.390625 1.335938 1.347656 1.328125 1.296875 C 1.328125 1.253906 1.335938 1.207031 1.359375 1.15625 L 1.84375 0.171875 L 0.84375 0.65625 C 0.800781 0.675781 0.757812 0.679688 0.71875 0.671875 C 0.675781 0.671875 0.632812 0.65625 0.59375 0.625 L 0.5625 0.59375 C 0.53125 0.5625 0.507812 0.519531 0.5 0.46875 C 0.5 0.425781 0.507812 0.378906 0.53125 0.328125 L 1.171875 -1.03125 C 1.171875 -1.050781 1.175781 -1.066406 1.1875 -1.078125 C 1.195312 -1.085938 1.207031 -1.09375 1.21875 -1.09375 Z M 1.21875 -1.09375 "/></g></g></g><g fill="#000000" fill-opacity="1"><g transform="translate(18.880335, 43.867603)"><g><path d="M 0.296875 -0.046875 L 1.109375 -1.1875 C 1.148438 -1.226562 1.195312 -1.253906 1.25 -1.265625 C 1.300781 -1.273438 1.351562 -1.257812 1.40625 -1.21875 L 2.21875 -0.640625 C 2.257812 -0.609375 2.285156 -0.566406 2.296875 -0.515625 C 2.304688 -0.472656 2.296875 -0.429688 2.265625 -0.390625 C 2.242188 -0.347656 2.203125 -0.320312 2.140625 -0.3125 C 2.085938 -0.300781 2.039062 -0.3125 2 -0.34375 L 1.34375 -0.8125 L 1.140625 -0.53125 L 1.703125 -0.125 C 1.734375 -0.09375 1.753906 -0.0507812 1.765625 0 C 1.773438 0.0507812 1.765625 0.0976562 1.734375 0.140625 C 1.710938 0.171875 1.675781 0.191406 1.625 0.203125 C 1.570312 0.210938 1.53125 0.203125 1.5 0.171875 L 0.9375 -0.234375 L 0.703125 0.0625 L 1.375 0.546875 C 1.414062 0.578125 1.4375 0.613281 1.4375 0.65625 C 1.445312 0.707031 1.4375 0.753906 1.40625 0.796875 C 1.382812 0.835938 1.347656 0.863281 1.296875 0.875 C 1.253906 0.882812 1.210938 0.875 1.171875 0.84375 L 0.34375 0.25 C 0.289062 0.207031 0.257812 0.160156 0.25 0.109375 C 0.238281 0.0546875 0.253906 0.00390625 0.296875 -0.046875 Z M 0.296875 -0.046875 "/></g></g></g><g fill="#000000" fill-opacity="1"><g transform="translate(20.698051, 45.148165)"><g><path d="M 0.28125 -0.0625 L 0.953125 -1.3125 C 0.984375 -1.363281 1.019531 -1.394531 1.0625 -1.40625 C 1.113281 -1.425781 1.171875 -1.421875 1.234375 -1.390625 L 1.796875 -1.09375 C 1.859375 -1.050781 1.914062 -1.003906 1.96875 -0.953125 C 2.03125 -0.910156 2.078125 -0.859375 2.109375 -0.796875 C 2.148438 -0.734375 2.164062 -0.664062 2.15625 -0.59375 C 2.15625 -0.53125 2.132812 -0.460938 2.09375 -0.390625 C 2.039062 -0.296875 1.976562 -0.234375 1.90625 -0.203125 C 1.84375 -0.171875 1.773438 -0.160156 1.703125 -0.171875 C 1.773438 -0.078125 1.820312 0.0078125 1.84375 0.09375 C 1.863281 0.1875 1.84375 0.289062 1.78125 0.40625 C 1.738281 0.476562 1.691406 0.53125 1.640625 0.5625 C 1.585938 0.601562 1.519531 0.625 1.4375 0.625 C 1.363281 0.632812 1.285156 0.628906 1.203125 0.609375 C 1.117188 0.597656 1.035156 0.566406 0.953125 0.515625 L 0.375 0.203125 C 0.3125 0.171875 0.269531 0.128906 0.25 0.078125 C 0.238281 0.0351562 0.25 -0.0078125 0.28125 -0.0625 Z M 0.890625 -0.359375 L 0.6875 0 L 1.109375 0.21875 C 1.191406 0.257812 1.257812 0.273438 1.3125 0.265625 C 1.375 0.253906 1.421875 0.21875 1.453125 0.15625 C 1.484375 0.101562 1.488281 0.0507812 1.46875 0 C 1.445312 -0.0507812 1.390625 -0.101562 1.296875 -0.15625 Z M 1.046875 -0.65625 L 1.359375 -0.484375 C 1.441406 -0.441406 1.515625 -0.421875 1.578125 -0.421875 C 1.640625 -0.421875 1.6875 -0.453125 1.71875 -0.515625 C 1.75 -0.566406 1.75 -0.617188 1.71875 -0.671875 C 1.695312 -0.734375 1.648438 -0.78125 1.578125 -0.8125 L 1.234375 -1 Z M 1.046875 -0.65625 "/></g></g></g><g fill="#000000" fill-opacity="1"><g transform="translate(22.775802, 46.218248)"><g/></g></g><g fill="#000000" fill-opacity="1"><g transform="translate(23.92093, 46.707423)"><g><path d="M 0.671875 -1.484375 C 0.679688 -1.535156 0.707031 -1.570312 0.75 -1.59375 C 0.800781 -1.625 0.859375 -1.628906 0.921875 -1.609375 L 1.390625 -1.46875 C 1.535156 -1.425781 1.660156 -1.363281 1.765625 -1.28125 C 1.867188 -1.195312 1.945312 -1.109375 2 -1.015625 C 2.0625 -0.921875 2.097656 -0.8125 2.109375 -0.6875 C 2.117188 -0.570312 2.109375 -0.453125 2.078125 -0.328125 C 2.035156 -0.203125 1.972656 -0.09375 1.890625 0 C 1.816406 0.0820312 1.726562 0.148438 1.625 0.203125 C 1.53125 0.265625 1.414062 0.300781 1.28125 0.3125 C 1.15625 0.320312 1.019531 0.304688 0.875 0.265625 L 0.40625 0.125 C 0.34375 0.101562 0.296875 0.0664062 0.265625 0.015625 C 0.242188 -0.0234375 0.242188 -0.0703125 0.265625 -0.125 Z M 0.984375 -0.078125 C 1.066406 -0.0546875 1.144531 -0.046875 1.21875 -0.046875 C 1.289062 -0.0546875 1.351562 -0.0703125 1.40625 -0.09375 C 1.46875 -0.125 1.519531 -0.171875 1.5625 -0.234375 C 1.601562 -0.296875 1.640625 -0.367188 1.671875 -0.453125 C 1.691406 -0.523438 1.695312 -0.597656 1.6875 -0.671875 C 1.6875 -0.742188 1.671875 -0.804688 1.640625 -0.859375 C 1.609375 -0.921875 1.5625 -0.972656 1.5 -1.015625 C 1.445312 -1.066406 1.378906 -1.101562 1.296875 -1.125 L 1.015625 -1.203125 L 0.703125 -0.15625 Z M 0.984375 -0.078125 "/></g></g></g><g fill="#000000" fill-opacity="1"><g transform="translate(26.343159, 47.392628)"><g><path d="M 0.25 -0.171875 L 0.46875 -1.5625 C 0.476562 -1.625 0.503906 -1.671875 0.546875 -1.703125 C 0.585938 -1.734375 0.640625 -1.742188 0.703125 -1.734375 L 1.6875 -1.578125 C 1.738281 -1.566406 1.78125 -1.539062 1.8125 -1.5 C 1.84375 -1.46875 1.859375 -1.425781 1.859375 -1.375 C 1.847656 -1.320312 1.820312 -1.28125 1.78125 -1.25 C 1.738281 -1.21875 1.691406 -1.207031 1.640625 -1.21875 L 0.84375 -1.34375 L 0.78125 -0.984375 L 1.46875 -0.875 C 1.507812 -0.863281 1.546875 -0.835938 1.578125 -0.796875 C 1.609375 -0.753906 1.617188 -0.707031 1.609375 -0.65625 C 1.609375 -0.613281 1.582031 -0.578125 1.53125 -0.546875 C 1.488281 -0.515625 1.445312 -0.503906 1.40625 -0.515625 L 0.71875 -0.625 L 0.671875 -0.265625 L 1.484375 -0.125 C 1.535156 -0.125 1.570312 -0.101562 1.59375 -0.0625 C 1.625 -0.0195312 1.632812 0.0234375 1.625 0.078125 C 1.613281 0.128906 1.585938 0.164062 1.546875 0.1875 C 1.515625 0.21875 1.472656 0.234375 1.421875 0.234375 L 0.421875 0.0625 C 0.359375 0.0507812 0.3125 0.0234375 0.28125 -0.015625 C 0.25 -0.0546875 0.238281 -0.109375 0.25 -0.171875 Z M 0.25 -0.171875 "/></g></g></g><g fill="#000000" fill-opacity="1"><g transform="translate(28.542537, 47.719921)"><g><path d="M 0.359375 -1.8125 C 0.410156 -1.8125 0.445312 -1.796875 0.46875 -1.765625 C 0.5 -1.742188 0.523438 -1.710938 0.546875 -1.671875 L 0.96875 -0.484375 L 1.453125 -1.65625 C 1.460938 -1.6875 1.488281 -1.710938 1.53125 -1.734375 C 1.570312 -1.765625 1.613281 -1.78125 1.65625 -1.78125 C 1.71875 -1.78125 1.765625 -1.757812 1.796875 -1.71875 C 1.828125 -1.675781 1.84375 -1.628906 1.84375 -1.578125 C 1.84375 -1.554688 1.835938 -1.535156 1.828125 -1.515625 C 1.828125 -1.503906 1.828125 -1.492188 1.828125 -1.484375 L 1.1875 -0.09375 C 1.132812 0.0078125 1.054688 0.0625 0.953125 0.0625 L 0.921875 0.0625 C 0.816406 0.0625 0.742188 0.00390625 0.703125 -0.109375 L 0.15625 -1.53125 C 0.15625 -1.550781 0.148438 -1.566406 0.140625 -1.578125 C 0.140625 -1.597656 0.140625 -1.617188 0.140625 -1.640625 C 0.140625 -1.691406 0.160156 -1.734375 0.203125 -1.765625 C 0.242188 -1.804688 0.296875 -1.820312 0.359375 -1.8125 Z M 0.359375 -1.8125 "/></g></g></g><g fill="#000000" fill-opacity="1"><g transform="translate(30.911007, 47.757728)"><g><path d="M 0.203125 -0.21875 L 0.0625 -1.625 C 0.0507812 -1.675781 0.0625 -1.722656 0.09375 -1.765625 C 0.132812 -1.804688 0.1875 -1.832031 0.25 -1.84375 L 1.25 -1.9375 C 1.300781 -1.9375 1.34375 -1.921875 1.375 -1.890625 C 1.414062 -1.867188 1.441406 -1.835938 1.453125 -1.796875 C 1.453125 -1.742188 1.4375 -1.695312 1.40625 -1.65625 C 1.375 -1.613281 1.332031 -1.59375 1.28125 -1.59375 L 0.46875 -1.515625 L 0.5 -1.15625 L 1.203125 -1.21875 C 1.242188 -1.226562 1.285156 -1.210938 1.328125 -1.171875 C 1.367188 -1.140625 1.390625 -1.097656 1.390625 -1.046875 C 1.398438 -1.003906 1.382812 -0.960938 1.34375 -0.921875 C 1.3125 -0.890625 1.273438 -0.867188 1.234375 -0.859375 L 0.53125 -0.796875 L 0.578125 -0.421875 L 1.40625 -0.5 C 1.457031 -0.5 1.5 -0.484375 1.53125 -0.453125 C 1.5625 -0.421875 1.582031 -0.378906 1.59375 -0.328125 C 1.59375 -0.273438 1.578125 -0.226562 1.546875 -0.1875 C 1.523438 -0.15625 1.488281 -0.140625 1.4375 -0.140625 L 0.421875 -0.046875 C 0.359375 -0.0351562 0.304688 -0.046875 0.265625 -0.078125 C 0.222656 -0.109375 0.203125 -0.15625 0.203125 -0.21875 Z M 0.203125 -0.21875 "/></g></g></g><g fill="#000000" fill-opacity="1"><g transform="translate(33.114273, 47.509246)"><g><path d="M -0.125 -1.640625 C -0.144531 -1.691406 -0.140625 -1.738281 -0.109375 -1.78125 C -0.078125 -1.832031 -0.0351562 -1.863281 0.015625 -1.875 C 0.0664062 -1.882812 0.113281 -1.875 0.15625 -1.84375 C 0.207031 -1.820312 0.242188 -1.785156 0.265625 -1.734375 L 0.53125 -0.484375 L 1.25 -0.640625 C 1.300781 -0.648438 1.347656 -0.640625 1.390625 -0.609375 C 1.429688 -0.585938 1.453125 -0.554688 1.453125 -0.515625 C 1.460938 -0.460938 1.457031 -0.414062 1.4375 -0.375 C 1.414062 -0.332031 1.378906 -0.304688 1.328125 -0.296875 L 0.40625 -0.09375 C 0.351562 -0.0820312 0.300781 -0.0859375 0.25 -0.109375 C 0.207031 -0.140625 0.179688 -0.1875 0.171875 -0.25 Z M -0.125 -1.640625 "/></g></g></g><g fill="#000000" fill-opacity="1"><g transform="translate(35.157855, 47.043713)"><g><path d="M 0.40625 -2.109375 C 0.53125 -2.160156 0.65625 -2.179688 0.78125 -2.171875 C 0.90625 -2.171875 1.019531 -2.144531 1.125 -2.09375 C 1.238281 -2.039062 1.335938 -1.972656 1.421875 -1.890625 C 1.515625 -1.804688 1.582031 -1.695312 1.625 -1.5625 C 1.664062 -1.445312 1.679688 -1.328125 1.671875 -1.203125 C 1.671875 -1.078125 1.644531 -0.957031 1.59375 -0.84375 C 1.550781 -0.738281 1.484375 -0.640625 1.390625 -0.546875 C 1.296875 -0.460938 1.179688 -0.394531 1.046875 -0.34375 C 0.921875 -0.300781 0.789062 -0.28125 0.65625 -0.28125 C 0.53125 -0.289062 0.410156 -0.320312 0.296875 -0.375 C 0.191406 -0.425781 0.09375 -0.492188 0 -0.578125 C -0.0820312 -0.660156 -0.144531 -0.765625 -0.1875 -0.890625 C -0.226562 -1.023438 -0.242188 -1.148438 -0.234375 -1.265625 C -0.234375 -1.378906 -0.207031 -1.492188 -0.15625 -1.609375 C -0.101562 -1.722656 -0.03125 -1.820312 0.0625 -1.90625 C 0.15625 -2 0.269531 -2.066406 0.40625 -2.109375 Z M 0.921875 -0.703125 C 0.992188 -0.734375 1.054688 -0.769531 1.109375 -0.8125 C 1.160156 -0.851562 1.195312 -0.90625 1.21875 -0.96875 C 1.25 -1.039062 1.265625 -1.113281 1.265625 -1.1875 C 1.273438 -1.269531 1.265625 -1.347656 1.234375 -1.421875 C 1.203125 -1.503906 1.160156 -1.566406 1.109375 -1.609375 C 1.066406 -1.660156 1.007812 -1.703125 0.9375 -1.734375 C 0.875 -1.773438 0.804688 -1.796875 0.734375 -1.796875 C 0.660156 -1.804688 0.585938 -1.796875 0.515625 -1.765625 C 0.441406 -1.742188 0.378906 -1.707031 0.328125 -1.65625 C 0.273438 -1.601562 0.234375 -1.539062 0.203125 -1.46875 C 0.179688 -1.40625 0.171875 -1.335938 0.171875 -1.265625 C 0.171875 -1.191406 0.1875 -1.113281 0.21875 -1.03125 C 0.238281 -0.96875 0.269531 -0.90625 0.3125 -0.84375 C 0.363281 -0.789062 0.421875 -0.742188 0.484375 -0.703125 C 0.554688 -0.671875 0.625 -0.65625 0.6875 -0.65625 C 0.757812 -0.664062 0.835938 -0.679688 0.921875 -0.703125 Z M 0.921875 -0.703125 "/></g></g></g><g fill="#000000" fill-opacity="1"><g transform="translate(37.672188, 46.066688)"><g><path d="M -0.5625 -1.53125 C -0.59375 -1.582031 -0.597656 -1.628906 -0.578125 -1.671875 C -0.566406 -1.722656 -0.535156 -1.765625 -0.484375 -1.796875 L -0.015625 -2.046875 C 0.0859375 -2.097656 0.179688 -2.128906 0.265625 -2.140625 C 0.359375 -2.148438 0.441406 -2.144531 0.515625 -2.125 C 0.597656 -2.113281 0.671875 -2.082031 0.734375 -2.03125 C 0.804688 -1.976562 0.863281 -1.910156 0.90625 -1.828125 C 0.957031 -1.734375 0.984375 -1.640625 0.984375 -1.546875 C 0.984375 -1.460938 0.96875 -1.378906 0.9375 -1.296875 C 0.90625 -1.210938 0.859375 -1.140625 0.796875 -1.078125 C 0.734375 -1.015625 0.65625 -0.960938 0.5625 -0.921875 L 0.296875 -0.78125 L 0.453125 -0.46875 C 0.484375 -0.40625 0.488281 -0.347656 0.46875 -0.296875 C 0.445312 -0.242188 0.414062 -0.207031 0.375 -0.1875 C 0.320312 -0.15625 0.269531 -0.144531 0.21875 -0.15625 C 0.164062 -0.175781 0.125 -0.21875 0.09375 -0.28125 Z M 0.125 -1.09375 L 0.40625 -1.234375 C 0.488281 -1.273438 0.539062 -1.332031 0.5625 -1.40625 C 0.59375 -1.488281 0.59375 -1.5625 0.5625 -1.625 L 0.546875 -1.640625 C 0.503906 -1.710938 0.445312 -1.753906 0.375 -1.765625 C 0.300781 -1.773438 0.21875 -1.757812 0.125 -1.71875 L -0.140625 -1.578125 Z M 0.125 -1.09375 "/></g></g></g><g fill="#000000" fill-opacity="1"><g transform="translate(39.61272, 44.999087)"><g><path d="M 0.0625 -0.296875 L -0.75 -1.4375 C -0.789062 -1.488281 -0.804688 -1.539062 -0.796875 -1.59375 C -0.785156 -1.644531 -0.753906 -1.691406 -0.703125 -1.734375 L 0.109375 -2.296875 C 0.148438 -2.328125 0.195312 -2.335938 0.25 -2.328125 C 0.300781 -2.328125 0.34375 -2.304688 0.375 -2.265625 C 0.394531 -2.222656 0.398438 -2.175781 0.390625 -2.125 C 0.378906 -2.070312 0.351562 -2.03125 0.3125 -2 L -0.34375 -1.53125 L -0.125 -1.234375 L 0.453125 -1.640625 C 0.484375 -1.671875 0.523438 -1.679688 0.578125 -1.671875 C 0.628906 -1.660156 0.671875 -1.632812 0.703125 -1.59375 C 0.722656 -1.5625 0.726562 -1.519531 0.71875 -1.46875 C 0.707031 -1.414062 0.6875 -1.375 0.65625 -1.34375 L 0.078125 -0.9375 L 0.296875 -0.640625 L 0.96875 -1.125 C 1.007812 -1.15625 1.050781 -1.160156 1.09375 -1.140625 C 1.144531 -1.128906 1.1875 -1.101562 1.21875 -1.0625 C 1.25 -1.019531 1.257812 -0.976562 1.25 -0.9375 C 1.238281 -0.894531 1.210938 -0.859375 1.171875 -0.828125 L 0.34375 -0.25 C 0.289062 -0.207031 0.238281 -0.191406 0.1875 -0.203125 C 0.132812 -0.210938 0.09375 -0.242188 0.0625 -0.296875 Z M 0.0625 -0.296875 "/></g></g></g><g fill="#000000" fill-opacity="1"><g transform="translate(41.414448, 43.69597)"><g><path d="M -0.9375 -1.328125 C -0.976562 -1.367188 -0.992188 -1.414062 -0.984375 -1.46875 C -0.984375 -1.519531 -0.957031 -1.566406 -0.90625 -1.609375 L -0.453125 -2.03125 C -0.378906 -2.09375 -0.304688 -2.144531 -0.234375 -2.1875 C -0.160156 -2.238281 -0.0820312 -2.265625 0 -2.265625 C 0.0820312 -2.265625 0.160156 -2.25 0.234375 -2.21875 C 0.316406 -2.195312 0.390625 -2.144531 0.453125 -2.0625 C 0.554688 -1.957031 0.613281 -1.847656 0.625 -1.734375 C 0.632812 -1.617188 0.617188 -1.507812 0.578125 -1.40625 L 0.984375 -1.34375 C 1.023438 -1.332031 1.054688 -1.320312 1.078125 -1.3125 C 1.109375 -1.3125 1.132812 -1.300781 1.15625 -1.28125 C 1.195312 -1.238281 1.210938 -1.191406 1.203125 -1.140625 C 1.191406 -1.085938 1.164062 -1.046875 1.125 -1.015625 C 1.101562 -0.984375 1.070312 -0.960938 1.03125 -0.953125 C 0.988281 -0.953125 0.953125 -0.953125 0.921875 -0.953125 L 0.296875 -1.0625 L 0.0625 -0.84375 L 0.328125 -0.5625 C 0.367188 -0.507812 0.390625 -0.457031 0.390625 -0.40625 C 0.390625 -0.351562 0.367188 -0.304688 0.328125 -0.265625 C 0.273438 -0.222656 0.222656 -0.203125 0.171875 -0.203125 C 0.117188 -0.203125 0.0703125 -0.226562 0.03125 -0.28125 Z M -0.53125 -1.5 L -0.1875 -1.109375 L 0.109375 -1.375 C 0.179688 -1.445312 0.222656 -1.515625 0.234375 -1.578125 C 0.242188 -1.648438 0.226562 -1.710938 0.1875 -1.765625 L 0.171875 -1.78125 C 0.117188 -1.84375 0.0546875 -1.867188 -0.015625 -1.859375 C -0.0859375 -1.859375 -0.160156 -1.828125 -0.234375 -1.765625 Z M -0.53125 -1.5 "/></g></g></g><g fill="#000000" fill-opacity="1"><g transform="translate(43.103991, 42.077388)"><g/></g></g></svg>