<svg xmlns="http://www.w3.org/2000/svg" xmlns:xlink="http://www.w3.org/1999/xlink" width="80" zoomAndPan="magnify" viewBox="0 0 60 60" height="80" preserveAspectRatio="xMidYMid meet" version="1.0"><defs><g/></defs><g fill="#ff0000" fill-opacity="1"><g transform="translate(3.724537, 40.46903)"><g><path d="M 18.203125 0 L 21.1875 -2.984375 L 21.1875 -17.90625 L 18.203125 -20.890625 L 0.148438 -20.890625 L 0.148438 -16.113281 L 16.414062 -16.113281 L 16.414062 -4.773438 L 7.164062 -4.773438 L 7.164062 -14.621094 L 2.386719 -14.621094 L 2.386719 0 Z M 18.203125 0 "/></g></g></g><g fill="#ff0000" fill-opacity="1"><g transform="translate(29.596841, 40.46903)"><g><path d="M 18.203125 -5.074219 L 21.1875 -8.058594 L 21.1875 -17.90625 L 18.203125 -20.890625 L 0.148438 -20.890625 L 0.148438 -16.113281 L 16.414062 -16.113281 L 16.414062 -9.847656 L 7.164062 -9.847656 L 7.164062 -14.621094 L 2.386719 -14.621094 L 2.386719 0 L 7.164062 0 L 7.164062 -5.074219 L 12.144531 -5.074219 C 13.636719 -3.371094 15.101562 -1.671875 16.621094 0 L 22.679688 0 C 21.160156 -1.671875 19.695312 -3.371094 18.203125 -5.074219 Z M 18.203125 -5.074219 "/></g></g></g><g fill="#00ffff" fill-opacity="1"><g transform="translate(7.42713, 40.014408)"><g><path d="M 18.203125 0 L 21.1875 -2.984375 L 21.1875 -17.90625 L 18.203125 -20.890625 L 0.148438 -20.890625 L 0.148438 -16.113281 L 16.414062 -16.113281 L 16.414062 -4.773438 L 7.164062 -4.773438 L 7.164062 -14.621094 L 2.386719 -14.621094 L 2.386719 0 Z M 18.203125 0 "/></g></g></g><g fill="#00ffff" fill-opacity="1"><g transform="translate(33.299434, 40.014408)"><g><path d="M 18.203125 -5.074219 L 21.1875 -8.058594 L 21.1875 -17.90625 L 18.203125 -20.890625 L 0.148438 -20.890625 L 0.148438 -16.113281 L 16.414062 -16.113281 L 16.414062 -9.847656 L 7.164062 -9.847656 L 7.164062 -14.621094 L 2.386719 -14.621094 L 2.386719 0 L 7.164062 0 L 7.164062 -5.074219 L 12.144531 -5.074219 C 13.636719 -3.371094 15.101562 -1.671875 16.621094 0 L 22.679688 0 C 21.160156 -1.671875 19.695312 -3.371094 18.203125 -5.074219 Z M 18.203125 -5.074219 "/></g></g></g><g fill="#0cc0df" fill-opacity="1"><g transform="translate(5.575834, 40.241719)"><g><path d="M 18.203125 0 L 21.1875 -2.984375 L 21.1875 -17.90625 L 18.203125 -20.890625 L 0.148438 -20.890625 L 0.148438 -16.113281 L 16.414062 -16.113281 L 16.414062 -4.773438 L 7.164062 -4.773438 L 7.164062 -14.621094 L 2.386719 -14.621094 L 2.386719 0 Z M 18.203125 0 "/></g></g></g><g fill="#0cc0df" fill-opacity="1"><g transform="translate(31.448137, 40.241719)"><g><path d="M 18.203125 -5.074219 L 21.1875 -8.058594 L 21.1875 -17.90625 L 18.203125 -20.890625 L 0.148438 -20.890625 L 0.148438 -16.113281 L 16.414062 -16.113281 L 16.414062 -9.847656 L 7.164062 -9.847656 L 7.164062 -14.621094 L 2.386719 -14.621094 L 2.386719 0 L 7.164062 0 L 7.164062 -5.074219 L 12.144531 -5.074219 C 13.636719 -3.371094 15.101562 -1.671875 16.621094 0 L 22.679688 0 C 21.160156 -1.671875 19.695312 -3.371094 18.203125 -5.074219 Z M 18.203125 -5.074219 "/></g></g></g></svg>