<svg xmlns="http://www.w3.org/2000/svg" xmlns:xlink="http://www.w3.org/1999/xlink" width="80" zoomAndPan="magnify" viewBox="0 0 60 60" height="80" preserveAspectRatio="xMidYMid meet" version="1.0"><defs><g/></defs><g fill="#ff0000" fill-opacity="1"><g transform="translate(6.664677, 24.040151)"><g><path d="M 6.097656 0 L 7.097656 -1 L 7.097656 -6 L 6.097656 -6.996094 L 0.0507812 -6.996094 L 0.0507812 -5.398438 L 5.5 -5.398438 L 5.5 -1.597656 L 2.398438 -1.597656 L 2.398438 -4.898438 L 0.800781 -4.898438 L 0.800781 0 Z M 6.097656 0 "/></g></g></g><g fill="#ff0000" fill-opacity="1"><g transform="translate(15.331111, 24.040151)"><g><path d="M 2.097656 0 L 2.097656 -6.996094 L 0.5 -6.996094 L 0.5 0 Z M 2.097656 0 "/></g></g></g><g fill="#ff0000" fill-opacity="1"><g transform="translate(18.999739, 24.040151)"><g><path d="M 6.898438 0 L 6.898438 -1.597656 L 2.398438 -1.597656 L 2.398438 -6.996094 L 0.0507812 -6.996094 L 0.0507812 -5.398438 L 0.800781 -5.398438 L 0.800781 0 Z M 6.898438 0 "/></g></g></g><g fill="#ff0000" fill-opacity="1"><g transform="translate(27.066435, 24.040151)"><g><path d="M 6.898438 0 L 6.898438 -1.597656 L 2.398438 -1.597656 L 2.398438 -6.996094 L 0.0507812 -6.996094 L 0.0507812 -5.398438 L 0.800781 -5.398438 L 0.800781 0 Z M 6.898438 0 "/></g></g></g><g fill="#ff0000" fill-opacity="1"><g transform="translate(35.133132, 24.040151)"><g><path d="M 6.796875 0 L 7.796875 -1 L 7.796875 -6 L 6.796875 -6.996094 L 1.5 -6.996094 L 0.5 -6 L 0.5 -1 L 1.5 0 Z M 6.199219 -1.597656 L 2.097656 -1.597656 L 2.097656 -5.398438 L 6.199219 -5.398438 Z M 6.199219 -1.597656 "/></g></g></g><g fill="#ff0000" fill-opacity="1"><g transform="translate(44.49926, 24.040151)"><g><path d="M 7.097656 0 L 7.097656 -6.996094 L 5.5 -6.996094 L 5.5 -2.699219 L 2.398438 -6.996094 L 0.0507812 -6.996094 L 0.0507812 -5.398438 L 0.800781 -5.398438 L 0.800781 0 L 2.398438 0 L 2.398438 -4.289062 L 5.5 0 Z M 7.097656 0 "/></g></g></g><g fill="#00ffff" fill-opacity="1"><g transform="translate(7.905091, 23.887847)"><g><path d="M 6.097656 0 L 7.097656 -1 L 7.097656 -6 L 6.097656 -6.996094 L 0.0507812 -6.996094 L 0.0507812 -5.398438 L 5.5 -5.398438 L 5.5 -1.597656 L 2.398438 -1.597656 L 2.398438 -4.898438 L 0.800781 -4.898438 L 0.800781 0 Z M 6.097656 0 "/></g></g></g><g fill="#00ffff" fill-opacity="1"><g transform="translate(16.571525, 23.887847)"><g><path d="M 2.097656 0 L 2.097656 -6.996094 L 0.5 -6.996094 L 0.5 0 Z M 2.097656 0 "/></g></g></g><g fill="#00ffff" fill-opacity="1"><g transform="translate(20.240153, 23.887847)"><g><path d="M 6.898438 0 L 6.898438 -1.597656 L 2.398438 -1.597656 L 2.398438 -6.996094 L 0.0507812 -6.996094 L 0.0507812 -5.398438 L 0.800781 -5.398438 L 0.800781 0 Z M 6.898438 0 "/></g></g></g><g fill="#00ffff" fill-opacity="1"><g transform="translate(28.30685, 23.887847)"><g><path d="M 6.898438 0 L 6.898438 -1.597656 L 2.398438 -1.597656 L 2.398438 -6.996094 L 0.0507812 -6.996094 L 0.0507812 -5.398438 L 0.800781 -5.398438 L 0.800781 0 Z M 6.898438 0 "/></g></g></g><g fill="#00ffff" fill-opacity="1"><g transform="translate(36.373546, 23.887847)"><g><path d="M 6.796875 0 L 7.796875 -1 L 7.796875 -6 L 6.796875 -6.996094 L 1.5 -6.996094 L 0.5 -6 L 0.5 -1 L 1.5 0 Z M 6.199219 -1.597656 L 2.097656 -1.597656 L 2.097656 -5.398438 L 6.199219 -5.398438 Z M 6.199219 -1.597656 "/></g></g></g><g fill="#00ffff" fill-opacity="1"><g transform="translate(45.739674, 23.887847)"><g><path d="M 7.097656 0 L 7.097656 -6.996094 L 5.5 -6.996094 L 5.5 -2.699219 L 2.398438 -6.996094 L 0.0507812 -6.996094 L 0.0507812 -5.398438 L 0.800781 -5.398438 L 0.800781 0 L 2.398438 0 L 2.398438 -4.289062 L 5.5 0 Z M 7.097656 0 "/></g></g></g><g fill="#88ff55" fill-opacity="1"><g transform="translate(7.284884, 23.963999)"><g><path d="M 6.097656 0 L 7.097656 -1 L 7.097656 -6 L 6.097656 -6.996094 L 0.0507812 -6.996094 L 0.0507812 -5.398438 L 5.5 -5.398438 L 5.5 -1.597656 L 2.398438 -1.597656 L 2.398438 -4.898438 L 0.800781 -4.898438 L 0.800781 0 Z M 6.097656 0 "/></g></g></g><g fill="#88ff55" fill-opacity="1"><g transform="translate(15.951318, 23.963999)"><g><path d="M 2.097656 0 L 2.097656 -6.996094 L 0.5 -6.996094 L 0.5 0 Z M 2.097656 0 "/></g></g></g><g fill="#88ff55" fill-opacity="1"><g transform="translate(19.619946, 23.963999)"><g><path d="M 6.898438 0 L 6.898438 -1.597656 L 2.398438 -1.597656 L 2.398438 -6.996094 L 0.0507812 -6.996094 L 0.0507812 -5.398438 L 0.800781 -5.398438 L 0.800781 0 Z M 6.898438 0 "/></g></g></g><g fill="#88ff55" fill-opacity="1"><g transform="translate(27.686642, 23.963999)"><g><path d="M 6.898438 0 L 6.898438 -1.597656 L 2.398438 -1.597656 L 2.398438 -6.996094 L 0.0507812 -6.996094 L 0.0507812 -5.398438 L 0.800781 -5.398438 L 0.800781 0 Z M 6.898438 0 "/></g></g></g><g fill="#88ff55" fill-opacity="1"><g transform="translate(35.753339, 23.963999)"><g><path d="M 6.796875 0 L 7.796875 -1 L 7.796875 -6 L 6.796875 -6.996094 L 1.5 -6.996094 L 0.5 -6 L 0.5 -1 L 1.5 0 Z M 6.199219 -1.597656 L 2.097656 -1.597656 L 2.097656 -5.398438 L 6.199219 -5.398438 Z M 6.199219 -1.597656 "/></g></g></g><g fill="#88ff55" fill-opacity="1"><g transform="translate(45.119467, 23.963999)"><g><path d="M 7.097656 0 L 7.097656 -6.996094 L 5.5 -6.996094 L 5.5 -2.699219 L 2.398438 -6.996094 L 0.0507812 -6.996094 L 0.0507812 -5.398438 L 0.800781 -5.398438 L 0.800781 0 L 2.398438 0 L 2.398438 -4.289062 L 5.5 0 Z M 7.097656 0 "/></g></g></g><g fill="#ff0000" fill-opacity="1"><g transform="translate(6.514677, 33.28015)"><g><path d="M 6.390625 -1.78125 L 7.4375 -2.828125 L 7.4375 -6.285156 L 6.390625 -7.335938 L 0.0507812 -7.335938 L 0.0507812 -5.65625 L 5.761719 -5.65625 L 5.761719 -3.457031 L 2.515625 -3.457031 L 2.515625 -5.132812 L 0.839844 -5.132812 L 0.839844 0 L 2.515625 0 L 2.515625 -1.78125 L 4.265625 -1.78125 C 4.789062 -1.183594 5.300781 -0.585938 5.835938 0 L 7.960938 0 C 7.429688 -0.585938 6.914062 -1.183594 6.390625 -1.78125 Z M 6.390625 -1.78125 "/></g></g></g><g fill="#ff0000" fill-opacity="1"><g transform="translate(15.702046, 33.28015)"><g><path d="M 7.125 0 L 8.171875 -1.046875 L 8.171875 -6.285156 L 7.125 -7.335938 L 1.570312 -7.335938 L 0.523438 -6.285156 L 0.523438 -1.046875 L 1.570312 0 Z M 6.496094 -1.675781 L 2.199219 -1.675781 L 2.199219 -5.65625 L 6.496094 -5.65625 Z M 6.496094 -1.675781 "/></g></g></g><g fill="#ff0000" fill-opacity="1"><g transform="translate(25.517955, 33.28015)"><g><path d="M 6.445312 0 L 7.492188 -1.046875 L 7.492188 -3.457031 L 6.445312 -4.503906 L 2.199219 -4.503906 L 2.199219 -5.65625 L 7.492188 -5.65625 L 7.492188 -7.335938 L 1.570312 -7.335938 L 0.523438 -6.285156 L 0.523438 -3.875 L 1.570312 -2.828125 L 5.816406 -2.828125 L 5.816406 -1.675781 L 0.523438 -1.675781 L 0.523438 0 Z M 6.445312 0 "/></g></g></g><g fill="#ff0000" fill-opacity="1"><g transform="translate(34.652947, 33.28015)"><g><path d="M 7.648438 0 L 7.648438 -1.675781 L 2.199219 -1.675781 L 2.199219 -5.65625 L 6.234375 -5.65625 L 6.234375 -4.402344 L 2.722656 -4.402344 L 2.722656 -2.722656 L 6.863281 -2.722656 L 7.910156 -3.773438 L 7.910156 -6.285156 L 6.863281 -7.335938 L 1.570312 -7.335938 L 0.523438 -6.285156 L 0.523438 -1.046875 L 1.570312 0 Z M 7.648438 0 "/></g></g></g><g fill="#ff0000" fill-opacity="1"><g transform="translate(44.206965, 33.28015)"><g><path d="M 7.4375 0 L 7.4375 -7.335938 L 5.761719 -7.335938 L 5.761719 -2.828125 L 2.515625 -7.335938 L 0.0507812 -7.335938 L 0.0507812 -5.65625 L 0.839844 -5.65625 L 0.839844 0 L 2.515625 0 L 2.515625 -4.496094 L 5.761719 0 Z M 7.4375 0 "/></g></g></g><g fill="#00ffff" fill-opacity="1"><g transform="translate(7.755091, 33.127847)"><g><path d="M 6.390625 -1.78125 L 7.4375 -2.828125 L 7.4375 -6.285156 L 6.390625 -7.335938 L 0.0507812 -7.335938 L 0.0507812 -5.65625 L 5.761719 -5.65625 L 5.761719 -3.457031 L 2.515625 -3.457031 L 2.515625 -5.132812 L 0.839844 -5.132812 L 0.839844 0 L 2.515625 0 L 2.515625 -1.78125 L 4.265625 -1.78125 C 4.789062 -1.183594 5.300781 -0.585938 5.835938 0 L 7.960938 0 C 7.429688 -0.585938 6.914062 -1.183594 6.390625 -1.78125 Z M 6.390625 -1.78125 "/></g></g></g><g fill="#00ffff" fill-opacity="1"><g transform="translate(16.942461, 33.127847)"><g><path d="M 7.125 0 L 8.171875 -1.046875 L 8.171875 -6.285156 L 7.125 -7.335938 L 1.570312 -7.335938 L 0.523438 -6.285156 L 0.523438 -1.046875 L 1.570312 0 Z M 6.496094 -1.675781 L 2.199219 -1.675781 L 2.199219 -5.65625 L 6.496094 -5.65625 Z M 6.496094 -1.675781 "/></g></g></g><g fill="#00ffff" fill-opacity="1"><g transform="translate(26.758369, 33.127847)"><g><path d="M 6.445312 0 L 7.492188 -1.046875 L 7.492188 -3.457031 L 6.445312 -4.503906 L 2.199219 -4.503906 L 2.199219 -5.65625 L 7.492188 -5.65625 L 7.492188 -7.335938 L 1.570312 -7.335938 L 0.523438 -6.285156 L 0.523438 -3.875 L 1.570312 -2.828125 L 5.816406 -2.828125 L 5.816406 -1.675781 L 0.523438 -1.675781 L 0.523438 0 Z M 6.445312 0 "/></g></g></g><g fill="#00ffff" fill-opacity="1"><g transform="translate(35.893361, 33.127847)"><g><path d="M 7.648438 0 L 7.648438 -1.675781 L 2.199219 -1.675781 L 2.199219 -5.65625 L 6.234375 -5.65625 L 6.234375 -4.402344 L 2.722656 -4.402344 L 2.722656 -2.722656 L 6.863281 -2.722656 L 7.910156 -3.773438 L 7.910156 -6.285156 L 6.863281 -7.335938 L 1.570312 -7.335938 L 0.523438 -6.285156 L 0.523438 -1.046875 L 1.570312 0 Z M 7.648438 0 "/></g></g></g><g fill="#00ffff" fill-opacity="1"><g transform="translate(45.447379, 33.127847)"><g><path d="M 7.4375 0 L 7.4375 -7.335938 L 5.761719 -7.335938 L 5.761719 -2.828125 L 2.515625 -7.335938 L 0.0507812 -7.335938 L 0.0507812 -5.65625 L 0.839844 -5.65625 L 0.839844 0 L 2.515625 0 L 2.515625 -4.496094 L 5.761719 0 Z M 7.4375 0 "/></g></g></g><g fill="#88ff55" fill-opacity="1"><g transform="translate(7.134884, 33.203998)"><g><path d="M 6.390625 -1.78125 L 7.4375 -2.828125 L 7.4375 -6.285156 L 6.390625 -7.335938 L 0.0507812 -7.335938 L 0.0507812 -5.65625 L 5.761719 -5.65625 L 5.761719 -3.457031 L 2.515625 -3.457031 L 2.515625 -5.132812 L 0.839844 -5.132812 L 0.839844 0 L 2.515625 0 L 2.515625 -1.78125 L 4.265625 -1.78125 C 4.789062 -1.183594 5.300781 -0.585938 5.835938 0 L 7.960938 0 C 7.429688 -0.585938 6.914062 -1.183594 6.390625 -1.78125 Z M 6.390625 -1.78125 "/></g></g></g><g fill="#88ff55" fill-opacity="1"><g transform="translate(16.322253, 33.203998)"><g><path d="M 7.125 0 L 8.171875 -1.046875 L 8.171875 -6.285156 L 7.125 -7.335938 L 1.570312 -7.335938 L 0.523438 -6.285156 L 0.523438 -1.046875 L 1.570312 0 Z M 6.496094 -1.675781 L 2.199219 -1.675781 L 2.199219 -5.65625 L 6.496094 -5.65625 Z M 6.496094 -1.675781 "/></g></g></g><g fill="#88ff55" fill-opacity="1"><g transform="translate(26.138162, 33.203998)"><g><path d="M 6.445312 0 L 7.492188 -1.046875 L 7.492188 -3.457031 L 6.445312 -4.503906 L 2.199219 -4.503906 L 2.199219 -5.65625 L 7.492188 -5.65625 L 7.492188 -7.335938 L 1.570312 -7.335938 L 0.523438 -6.285156 L 0.523438 -3.875 L 1.570312 -2.828125 L 5.816406 -2.828125 L 5.816406 -1.675781 L 0.523438 -1.675781 L 0.523438 0 Z M 6.445312 0 "/></g></g></g><g fill="#88ff55" fill-opacity="1"><g transform="translate(35.273154, 33.203998)"><g><path d="M 7.648438 0 L 7.648438 -1.675781 L 2.199219 -1.675781 L 2.199219 -5.65625 L 6.234375 -5.65625 L 6.234375 -4.402344 L 2.722656 -4.402344 L 2.722656 -2.722656 L 6.863281 -2.722656 L 7.910156 -3.773438 L 7.910156 -6.285156 L 6.863281 -7.335938 L 1.570312 -7.335938 L 0.523438 -6.285156 L 0.523438 -1.046875 L 1.570312 0 Z M 7.648438 0 "/></g></g></g><g fill="#88ff55" fill-opacity="1"><g transform="translate(44.827172, 33.203998)"><g><path d="M 7.4375 0 L 7.4375 -7.335938 L 5.761719 -7.335938 L 5.761719 -2.828125 L 2.515625 -7.335938 L 0.0507812 -7.335938 L 0.0507812 -5.65625 L 0.839844 -5.65625 L 0.839844 0 L 2.515625 0 L 2.515625 -4.496094 L 5.761719 0 Z M 7.4375 0 "/></g></g></g><g fill="#ff0000" fill-opacity="1"><g transform="translate(6.574677, 42.64015)"><g><path d="M 7.867188 0 L 6.148438 -3.667969 L 7.867188 -7.335938 L 6.023438 -7.335938 L 4.695312 -4.503906 L 2.515625 -4.503906 L 2.515625 -7.335938 L 0.0507812 -7.335938 L 0.0507812 -5.65625 L 0.839844 -5.65625 L 0.839844 0 L 2.515625 0 L 2.515625 -2.828125 L 4.714844 -2.828125 L 6.023438 0 Z M 7.867188 0 "/></g></g></g><g fill="#ff0000" fill-opacity="1"><g transform="translate(15.877278, 42.64015)"><g><path d="M 6.390625 -1.78125 L 7.4375 -2.828125 L 7.4375 -6.285156 L 6.390625 -7.335938 L 0.0507812 -7.335938 L 0.0507812 -5.65625 L 5.761719 -5.65625 L 5.761719 -3.457031 L 2.515625 -3.457031 L 2.515625 -5.132812 L 0.839844 -5.132812 L 0.839844 0 L 2.515625 0 L 2.515625 -1.78125 L 4.265625 -1.78125 C 4.789062 -1.183594 5.300781 -0.585938 5.835938 0 L 7.960938 0 C 7.429688 -0.585938 6.914062 -1.183594 6.390625 -1.78125 Z M 6.390625 -1.78125 "/></g></g></g><g fill="#ff0000" fill-opacity="1"><g transform="translate(25.064648, 42.64015)"><g><path d="M 7.910156 0 L 7.910156 -6.285156 L 6.863281 -7.335938 L 0.785156 -7.335938 L 0.785156 -5.65625 L 6.234375 -5.65625 L 6.234375 -4.503906 L 1.570312 -4.503906 L 0.523438 -3.457031 L 0.523438 -1.046875 L 1.570312 0 L 5.710938 0 L 5.710938 -1.675781 L 2.199219 -1.675781 L 2.199219 -2.828125 L 6.234375 -2.828125 L 6.234375 -1.046875 L 7.28125 0 Z M 7.910156 0 "/></g></g></g><g fill="#ff0000" fill-opacity="1"><g transform="translate(34.618664, 42.64015)"><g><path d="M 7.4375 0 L 7.4375 -7.335938 L 5.761719 -7.335938 L 5.761719 -2.828125 L 2.515625 -7.335938 L 0.0507812 -7.335938 L 0.0507812 -5.65625 L 0.839844 -5.65625 L 0.839844 0 L 2.515625 0 L 2.515625 -4.496094 L 5.761719 0 Z M 7.4375 0 "/></g></g></g><g fill="#ff0000" fill-opacity="1"><g transform="translate(43.701279, 42.64015)"><g><path d="M 3.195312 -1.675781 L 7.910156 -5.132812 L 7.910156 -6.285156 L 6.863281 -7.335938 L 0.523438 -7.335938 L 0.523438 -5.65625 L 5.816406 -5.65625 L 0.523438 -1.855469 L 0.523438 -1.046875 L 1.570312 0 L 7.910156 0 L 7.910156 -1.675781 Z M 3.195312 -1.675781 "/></g></g></g><g fill="#00ffff" fill-opacity="1"><g transform="translate(7.815091, 42.487846)"><g><path d="M 7.867188 0 L 6.148438 -3.667969 L 7.867188 -7.335938 L 6.023438 -7.335938 L 4.695312 -4.503906 L 2.515625 -4.503906 L 2.515625 -7.335938 L 0.0507812 -7.335938 L 0.0507812 -5.65625 L 0.839844 -5.65625 L 0.839844 0 L 2.515625 0 L 2.515625 -2.828125 L 4.714844 -2.828125 L 6.023438 0 Z M 7.867188 0 "/></g></g></g><g fill="#00ffff" fill-opacity="1"><g transform="translate(17.117692, 42.487846)"><g><path d="M 6.390625 -1.78125 L 7.4375 -2.828125 L 7.4375 -6.285156 L 6.390625 -7.335938 L 0.0507812 -7.335938 L 0.0507812 -5.65625 L 5.761719 -5.65625 L 5.761719 -3.457031 L 2.515625 -3.457031 L 2.515625 -5.132812 L 0.839844 -5.132812 L 0.839844 0 L 2.515625 0 L 2.515625 -1.78125 L 4.265625 -1.78125 C 4.789062 -1.183594 5.300781 -0.585938 5.835938 0 L 7.960938 0 C 7.429688 -0.585938 6.914062 -1.183594 6.390625 -1.78125 Z M 6.390625 -1.78125 "/></g></g></g><g fill="#00ffff" fill-opacity="1"><g transform="translate(26.305062, 42.487846)"><g><path d="M 7.910156 0 L 7.910156 -6.285156 L 6.863281 -7.335938 L 0.785156 -7.335938 L 0.785156 -5.65625 L 6.234375 -5.65625 L 6.234375 -4.503906 L 1.570312 -4.503906 L 0.523438 -3.457031 L 0.523438 -1.046875 L 1.570312 0 L 5.710938 0 L 5.710938 -1.675781 L 2.199219 -1.675781 L 2.199219 -2.828125 L 6.234375 -2.828125 L 6.234375 -1.046875 L 7.28125 0 Z M 7.910156 0 "/></g></g></g><g fill="#00ffff" fill-opacity="1"><g transform="translate(35.859078, 42.487846)"><g><path d="M 7.4375 0 L 7.4375 -7.335938 L 5.761719 -7.335938 L 5.761719 -2.828125 L 2.515625 -7.335938 L 0.0507812 -7.335938 L 0.0507812 -5.65625 L 0.839844 -5.65625 L 0.839844 0 L 2.515625 0 L 2.515625 -4.496094 L 5.761719 0 Z M 7.4375 0 "/></g></g></g><g fill="#00ffff" fill-opacity="1"><g transform="translate(44.941693, 42.487846)"><g><path d="M 3.195312 -1.675781 L 7.910156 -5.132812 L 7.910156 -6.285156 L 6.863281 -7.335938 L 0.523438 -7.335938 L 0.523438 -5.65625 L 5.816406 -5.65625 L 0.523438 -1.855469 L 0.523438 -1.046875 L 1.570312 0 L 7.910156 0 L 7.910156 -1.675781 Z M 3.195312 -1.675781 "/></g></g></g><g fill="#88ff55" fill-opacity="1"><g transform="translate(7.194884, 42.563998)"><g><path d="M 7.867188 0 L 6.148438 -3.667969 L 7.867188 -7.335938 L 6.023438 -7.335938 L 4.695312 -4.503906 L 2.515625 -4.503906 L 2.515625 -7.335938 L 0.0507812 -7.335938 L 0.0507812 -5.65625 L 0.839844 -5.65625 L 0.839844 0 L 2.515625 0 L 2.515625 -2.828125 L 4.714844 -2.828125 L 6.023438 0 Z M 7.867188 0 "/></g></g></g><g fill="#88ff55" fill-opacity="1"><g transform="translate(16.497485, 42.563998)"><g><path d="M 6.390625 -1.78125 L 7.4375 -2.828125 L 7.4375 -6.285156 L 6.390625 -7.335938 L 0.0507812 -7.335938 L 0.0507812 -5.65625 L 5.761719 -5.65625 L 5.761719 -3.457031 L 2.515625 -3.457031 L 2.515625 -5.132812 L 0.839844 -5.132812 L 0.839844 0 L 2.515625 0 L 2.515625 -1.78125 L 4.265625 -1.78125 C 4.789062 -1.183594 5.300781 -0.585938 5.835938 0 L 7.960938 0 C 7.429688 -0.585938 6.914062 -1.183594 6.390625 -1.78125 Z M 6.390625 -1.78125 "/></g></g></g><g fill="#88ff55" fill-opacity="1"><g transform="translate(25.684855, 42.563998)"><g><path d="M 7.910156 0 L 7.910156 -6.285156 L 6.863281 -7.335938 L 0.785156 -7.335938 L 0.785156 -5.65625 L 6.234375 -5.65625 L 6.234375 -4.503906 L 1.570312 -4.503906 L 0.523438 -3.457031 L 0.523438 -1.046875 L 1.570312 0 L 5.710938 0 L 5.710938 -1.675781 L 2.199219 -1.675781 L 2.199219 -2.828125 L 6.234375 -2.828125 L 6.234375 -1.046875 L 7.28125 0 Z M 7.910156 0 "/></g></g></g><g fill="#88ff55" fill-opacity="1"><g transform="translate(35.238871, 42.563998)"><g><path d="M 7.4375 0 L 7.4375 -7.335938 L 5.761719 -7.335938 L 5.761719 -2.828125 L 2.515625 -7.335938 L 0.0507812 -7.335938 L 0.0507812 -5.65625 L 0.839844 -5.65625 L 0.839844 0 L 2.515625 0 L 2.515625 -4.496094 L 5.761719 0 Z M 7.4375 0 "/></g></g></g><g fill="#88ff55" fill-opacity="1"><g transform="translate(44.321486, 42.563998)"><g><path d="M 3.195312 -1.675781 L 7.910156 -5.132812 L 7.910156 -6.285156 L 6.863281 -7.335938 L 0.523438 -7.335938 L 0.523438 -5.65625 L 5.816406 -5.65625 L 0.523438 -1.855469 L 0.523438 -1.046875 L 1.570312 0 L 7.910156 0 L 7.910156 -1.675781 Z M 3.195312 -1.675781 "/></g></g></g></svg>