<svg fill="#FFFFFF" xmlns="http://www.w3.org/2000/svg"  viewBox="0 0 64 64" width="24px" height="24px"><path d="M 31.984375 3.9863281 A 1.0001 1.0001 0 0 0 31.8125 4.0039062 C 29.63622 4.0182914 27.520359 4.2863932 25.488281 4.7714844 A 1.0001 1.0001 0 0 0 25.148438 4.8496094 C 23.01311 5.3876912 20.977569 6.1744716 19.068359 7.171875 A 1.0003097 1.0003097 0 0 0 18.931641 7.2402344 C 17.018566 8.25302 15.239601 9.4836616 13.621094 10.894531 A 1.0001 1.0001 0 0 0 13.277344 11.191406 C 11.729647 12.585093 10.342849 14.151392 9.1367188 15.855469 A 1.0001 1.0001 0 0 0 8.8066406 16.320312 C 7.6318534 18.053682 6.651574 19.92786 5.8847656 21.908203 A 1.0001 1.0001 0 0 0 5.7675781 22.208984 C 5.0304725 24.180408 4.5125608 26.257652 4.2363281 28.410156 A 1.0001 1.0001 0 0 0 4.1816406 28.839844 C 4.0647748 29.877629 4 30.931236 4 32 C 4 33.052604 4.0623759 34.090679 4.1757812 35.113281 A 1.0001 1.0001 0 0 0 4.2441406 35.650391 C 4.5281166 37.82562 5.0600803 39.922935 5.8144531 41.912109 A 1.0004564 1.0004564 0 0 0 5.8398438 41.976562 C 6.6130623 44.000183 7.6086292 45.91422 8.8066406 47.681641 A 1.0001 1.0001 0 0 0 9.1347656 48.142578 C 10.329759 49.831267 11.701762 51.385319 13.232422 52.769531 A 1.0001 1.0001 0 0 0 13.662109 53.142578 C 15.265129 54.534418 17.025225 55.749451 18.916016 56.751953 A 1.0003098 1.0003098 0 0 0 19.058594 56.824219 C 21.003358 57.841125 23.080796 58.636188 25.259766 59.175781 A 1.000703 1.000703 0 0 0 25.369141 59.201172 C 27.434307 59.703756 29.587552 59.978732 31.802734 59.994141 A 1.0001 1.0001 0 0 0 32.185547 59.996094 C 34.397984 59.981622 36.548367 59.705564 38.611328 59.205078 A 1.000703 1.000703 0 0 0 38.742188 59.175781 C 40.917019 58.637055 42.990093 57.842422 44.931641 56.828125 A 1.0003098 1.0003098 0 0 0 45.068359 56.759766 C 46.963735 55.75635 48.72941 54.538993 50.335938 53.144531 A 1.0001 1.0001 0 0 0 50.769531 52.769531 C 52.299081 51.386178 53.668938 49.831955 54.863281 48.144531 A 1.0001 1.0001 0 0 0 55.193359 47.679688 C 56.385487 45.920733 57.376874 44.016727 58.148438 42.003906 A 1.0004563 1.0004563 0 0 0 58.197266 41.880859 C 58.945835 39.899807 59.473497 37.811694 59.755859 35.646484 A 1.0001 1.0001 0 0 0 59.824219 35.111328 C 59.937483 34.089349 60 33.051942 60 32 C 60 30.92444 59.932789 29.864478 59.814453 28.820312 A 1.0001 1.0001 0 0 0 59.763672 28.416016 C 59.48736 26.259347 58.969378 24.178032 58.230469 22.203125 A 1.0001 1.0001 0 0 0 58.117188 21.914062 C 57.349866 19.931087 56.369679 18.053778 55.193359 16.318359 A 1.0001 1.0001 0 0 0 54.865234 15.857422 C 53.657145 14.150225 52.26763 12.581234 50.716797 11.185547 A 1.0001 1.0001 0 0 0 50.380859 10.896484 C 48.766152 9.4886492 46.992029 8.2596969 45.083984 7.2480469 A 1.0003097 1.0003097 0 0 0 44.941406 7.1757812 C 43.028425 6.1754939 40.987783 5.3885898 38.847656 4.8496094 A 1.0001 1.0001 0 0 0 38.521484 4.7734375 C 36.485236 4.2865809 34.364702 4.0180231 32.183594 4.0039062 A 1.0001 1.0001 0 0 0 31.984375 3.9863281 z M 31 6.0253906 L 31 10.025391 C 29.879719 10.075703 28.781765 10.209671 27.710938 10.421875 L 26.751953 6.5273438 C 28.130512 6.2454177 29.550975 6.0801035 31 6.0253906 z M 33 6.0253906 C 34.449025 6.0801035 35.869488 6.2454177 37.248047 6.5273438 L 36.289062 10.421875 C 35.218235 10.209671 34.120281 10.075703 33 10.025391 L 33 6.0253906 z M 24.810547 7.0136719 L 25.769531 10.902344 C 24.701966 11.217803 23.6673 11.611604 22.673828 12.078125 L 20.808594 8.5234375 C 22.087496 7.9133976 23.426316 7.4105908 24.810547 7.0136719 z M 39.189453 7.0136719 C 40.573684 7.4105908 41.912504 7.9133976 43.191406 8.5234375 L 41.326172 12.078125 C 40.3327 11.611604 39.298034 11.217803 38.230469 10.902344 L 39.189453 7.0136719 z M 19.039062 9.4589844 L 20.904297 13.011719 C 19.948478 13.572063 19.038532 14.201117 18.181641 14.894531 L 15.517578 11.886719 C 16.618491 10.983775 17.797793 10.173668 19.039062 9.4589844 z M 44.960938 9.4589844 C 46.202207 10.173668 47.381509 10.983775 48.482422 11.886719 L 45.818359 14.894531 C 44.961468 14.201117 44.051522 13.572063 43.095703 13.011719 L 44.960938 9.4589844 z M 30.970703 12.025391 C 30.980409 12.0249 30.99029 12.025868 31 12.025391 L 31 16.101562 C 29.238546 16.212796 27.542653 16.559866 25.980469 17.197266 L 24.230469 13.5625 C 25.153091 13.173856 26.120065 12.875144 27.107422 12.626953 A 1.0001 1.0001 0 0 0 27.351562 12.564453 C 28.523747 12.285575 29.728147 12.088236 30.970703 12.025391 z M 33 12.025391 C 34.253389 12.086978 35.468477 12.283142 36.650391 12.564453 A 1.0001 1.0001 0 0 0 36.898438 12.628906 C 37.883683 12.876892 38.848771 13.174641 39.769531 13.5625 L 38.019531 17.197266 C 36.457347 16.559866 34.761454 16.212796 33 16.101562 L 33 12.025391 z M 14.025391 13.216797 L 16.685547 16.220703 C 16.065525 16.822619 15.479632 17.460072 14.933594 18.130859 A 1.0001 1.0001 0 0 0 14.671875 18.464844 C 14.610927 18.542722 14.548198 18.618552 14.488281 18.697266 L 11.181641 16.416016 C 12.039515 15.271324 12.993961 14.204033 14.025391 13.216797 z M 49.974609 13.216797 C 51.006039 14.204033 51.960485 15.271324 52.818359 16.416016 L 49.511719 18.697266 C 49.454332 18.621876 49.39427 18.549234 49.335938 18.474609 A 1.0001 1.0001 0 0 0 49.333984 18.472656 A 1.0001 1.0001 0 0 0 49.0625 18.125 C 48.517732 17.456207 47.932795 16.820989 47.314453 16.220703 L 49.974609 13.216797 z M 22.427734 14.431641 L 24.203125 18.115234 C 22.69527 18.965397 21.342273 20.026793 20.1875 21.300781 L 17.017578 18.773438 C 17.523217 18.201001 18.061467 17.659556 18.628906 17.148438 A 1.0001 1.0001 0 0 0 18.882812 16.917969 C 19.971315 15.970672 21.150954 15.127844 22.427734 14.431641 z M 41.570312 14.431641 C 42.846834 15.127564 44.026876 15.969106 45.115234 16.916016 A 1.0001 1.0001 0 0 0 45.367188 17.144531 C 45.936135 17.656726 46.475565 18.199622 46.982422 18.773438 L 43.8125 21.300781 C 42.657727 20.026793 41.30473 18.965397 39.796875 18.115234 L 41.570312 14.431641 z M 31.910156 18.009766 A 1.0001 1.0001 0 0 0 32.091797 18.009766 C 39.792027 18.060348 46 24.28765 46 32 C 46 39.713013 39.790992 45.940711 32.089844 45.990234 A 1.0001 1.0001 0 0 0 31.908203 45.990234 C 24.207973 45.939652 18 39.71235 18 32 C 18 24.286987 24.209008 18.059289 31.910156 18.009766 z M 10.048828 18.064453 L 13.349609 20.34375 C 12.765323 21.275753 12.24819 22.252903 11.806641 23.271484 L 8.0527344 21.847656 C 8.6132236 20.525593 9.2865704 19.263515 10.048828 18.064453 z M 53.951172 18.064453 C 54.71343 19.263515 55.386776 20.525593 55.947266 21.847656 L 52.193359 23.271484 C 51.75181 22.252903 51.234677 21.275753 50.650391 20.34375 L 53.951172 18.064453 z M 15.769531 20.333984 L 18.914062 22.84375 C 17.934248 24.23999 17.222442 25.815267 16.726562 27.488281 L 12.761719 26.582031 C 13.346157 24.499008 14.239943 22.546141 15.421875 20.798828 A 1.0001 1.0001 0 0 0 15.615234 20.541016 C 15.664674 20.470407 15.719206 20.403918 15.769531 20.333984 z M 48.230469 20.333984 C 48.281327 20.404659 48.336765 20.471606 48.386719 20.542969 A 1.0001 1.0001 0 0 0 48.582031 20.804688 C 49.762049 22.550494 50.654494 24.501327 51.238281 26.582031 L 47.273438 27.488281 C 46.777558 25.815267 46.065753 24.23999 45.085938 22.84375 L 48.230469 20.333984 z M 7.3515625 23.722656 L 11.097656 25.142578 C 10.894893 25.759772 10.720467 26.389467 10.572266 27.029297 A 1.0006716 1.0006716 0 0 0 10.539062 27.169922 C 10.450811 27.562736 10.373528 27.958968 10.306641 28.359375 L 6.328125 27.876953 C 6.5551602 26.449174 6.9024454 25.062641 7.3515625 23.722656 z M 56.648438 23.722656 C 57.097555 25.062641 57.44484 26.449174 57.671875 27.876953 L 53.693359 28.359375 C 53.626683 27.96023 53.548844 27.565429 53.460938 27.173828 A 1.0006716 1.0006716 0 0 0 53.429688 27.037109 C 53.28111 26.394579 53.105935 25.762292 52.902344 25.142578 L 56.648438 23.722656 z M 12.304688 28.53125 L 16.259766 29.433594 C 16.122851 30.274392 16 31.121012 16 32 C 16 32.878988 16.122851 33.725608 16.259766 34.566406 L 12.304688 35.46875 C 12.251448 35.163641 12.205291 34.856601 12.166016 34.546875 A 1.0001 1.0001 0 0 0 12.130859 34.263672 C 12.047332 33.520374 12 32.765859 12 32 C 12 31.271191 12.041447 30.552227 12.117188 29.84375 A 1.0001 1.0001 0 0 0 12.181641 29.34375 C 12.217753 29.071015 12.257726 28.800379 12.304688 28.53125 z M 51.695312 28.53125 C 51.742508 28.801721 51.784075 29.073543 51.820312 29.347656 A 1.0001 1.0001 0 0 0 51.882812 29.84375 C 51.958553 30.552227 52 31.271191 52 32 C 52 32.761134 51.953608 33.511136 51.871094 34.25 A 1.0001 1.0001 0 0 0 51.832031 34.558594 C 51.793076 34.864339 51.747878 35.167507 51.695312 35.46875 L 47.740234 34.566406 C 47.877149 33.725608 48 32.878988 48 32 C 48 31.121012 47.877149 30.274392 47.740234 29.433594 L 51.695312 28.53125 z M 6.09375 29.861328 L 10.068359 30.34375 C 10.02746 30.891105 10 31.442296 10 32 C 10 32.557704 10.02746 33.108895 10.068359 33.65625 L 6.09375 34.138672 C 6.0363652 33.432793 6 32.720798 6 32 C 6 31.279202 6.0363652 30.567207 6.09375 29.861328 z M 57.90625 29.861328 C 57.963635 30.567207 58 31.279202 58 32 C 58 32.720798 57.963635 33.432793 57.90625 34.138672 L 53.931641 33.65625 C 53.97254 33.108895 54 32.557704 54 32 C 54 31.442296 53.97254 30.891105 53.931641 30.34375 L 57.90625 29.861328 z M 22.005859 30.009766 C 21.473859 29.983766 21.005906 30.454812 21.003906 31.007812 L 20.998047 33.007812 C 20.997047 33.559813 21.444094 34.008766 21.996094 34.009766 L 21.998047 34.009766 C 22.549047 34.009766 22.996047 33.562719 22.998047 33.011719 L 23.003906 31.011719 C 23.004906 30.459719 22.557859 30.010766 22.005859 30.009766 z M 27.005859 30.021484 C 26.443859 29.983484 26.005906 30.466531 26.003906 31.019531 L 25.998047 33.019531 C 25.997047 33.571531 26.444094 34.020484 26.996094 34.021484 L 26.998047 34.021484 C 27.549047 34.021484 27.996047 33.575438 27.998047 33.023438 L 28.003906 31.023438 C 28.004906 30.471437 27.557859 30.022484 27.005859 30.021484 z M 32.003906 30.033203 C 31.452906 30.033203 31.004906 30.47925 31.003906 31.03125 L 30.998047 33.03125 C 30.997047 33.58325 31.444094 34.032203 31.996094 34.033203 L 31.998047 34.033203 C 32.549047 34.033203 32.996047 33.587156 32.998047 33.035156 L 33.003906 31.035156 C 33.004906 30.483156 32.557859 30.034203 32.005859 30.033203 L 32.003906 30.033203 z M 37.003906 30.044922 C 36.452906 30.044922 36.004906 30.490969 36.003906 31.042969 L 35.998047 33.042969 C 35.997047 33.594969 36.444094 34.043922 36.996094 34.044922 L 36.998047 34.044922 C 37.549047 34.044922 37.996047 33.598875 37.998047 33.046875 L 38.003906 31.046875 C 38.004906 30.494875 37.557859 30.045922 37.005859 30.044922 L 37.003906 30.044922 z M 42.003906 30.056641 C 41.452906 30.056641 41.004906 30.502688 41.003906 31.054688 L 40.998047 33.054688 C 40.997047 33.606687 41.444094 34.055641 41.996094 34.056641 L 41.998047 34.056641 C 42.549047 34.056641 42.996047 33.609594 42.998047 33.058594 L 43.003906 31.058594 C 43.004906 30.506594 42.557859 30.057641 42.005859 30.056641 L 42.003906 30.056641 z M 10.306641 35.640625 C 10.373528 36.041032 10.450811 36.437264 10.539062 36.830078 A 1.0006716 1.0006716 0 0 0 10.570312 36.962891 C 10.71889 37.605421 10.894065 38.237708 11.097656 38.857422 L 7.3515625 40.277344 C 6.9024454 38.937359 6.5551602 37.550826 6.328125 36.123047 L 10.306641 35.640625 z M 53.693359 35.640625 L 57.671875 36.123047 C 57.44484 37.550826 57.097555 38.937359 56.648438 40.277344 L 52.902344 38.857422 C 53.105739 38.238303 53.281199 37.606736 53.429688 36.964844 A 1.0006716 1.0006716 0 0 0 53.460938 36.830078 C 53.549189 36.437264 53.626472 36.041032 53.693359 35.640625 z M 16.726562 36.511719 C 17.222441 38.184733 17.934248 39.76001 18.914062 41.15625 L 15.769531 43.666016 C 15.718673 43.595341 15.663235 43.528394 15.613281 43.457031 A 1.0001 1.0001 0 0 0 15.417969 43.195312 C 14.576534 41.950431 13.890626 40.595647 13.34375 39.171875 A 1.0001 1.0001 0 0 0 13.296875 39.041016 C 13.096986 38.509537 12.916594 37.969968 12.761719 37.417969 L 16.726562 36.511719 z M 47.273438 36.511719 L 51.238281 37.417969 C 51.08245 37.973373 50.900613 38.516158 50.699219 39.050781 A 1.0001 1.0001 0 0 0 50.666016 39.144531 C 50.116838 40.580558 49.426638 41.94677 48.578125 43.201172 A 1.0001 1.0001 0 0 0 48.384766 43.458984 C 48.335326 43.529593 48.280794 43.596082 48.230469 43.666016 L 45.085938 41.15625 C 46.065753 39.76001 46.777558 38.184733 47.273438 36.511719 z M 11.806641 40.728516 C 12.24819 41.747097 12.765323 42.724247 13.349609 43.65625 L 10.048828 45.935547 C 9.2865704 44.736485 8.6132236 43.474407 8.0527344 42.152344 L 11.806641 40.728516 z M 52.193359 40.728516 L 55.947266 42.152344 C 55.386776 43.474407 54.71343 44.736485 53.951172 45.935547 L 50.650391 43.65625 C 51.234677 42.724247 51.75181 41.747097 52.193359 40.728516 z M 20.1875 42.699219 C 21.342273 43.973207 22.69527 45.034603 24.203125 45.884766 L 22.429688 49.568359 C 20.375288 48.448359 18.554468 46.966484 17.017578 45.226562 L 20.1875 42.699219 z M 43.8125 42.699219 L 46.982422 45.226562 C 45.445899 46.966069 43.62607 48.448459 41.572266 49.568359 L 39.796875 45.884766 C 41.30473 45.034603 42.657727 43.973207 43.8125 42.699219 z M 14.488281 45.302734 C 14.545668 45.378124 14.607683 45.45272 14.666016 45.527344 A 1.0001 1.0001 0 0 0 14.9375 45.875 C 15.482268 46.543793 16.067205 47.179011 16.685547 47.779297 L 14.025391 50.783203 C 12.993961 49.795967 12.039515 48.728676 11.181641 47.583984 L 14.488281 45.302734 z M 49.511719 45.302734 L 52.818359 47.583984 C 51.960485 48.728676 51.006039 49.795967 49.974609 50.783203 L 47.314453 47.779297 C 47.934475 47.177381 48.520368 46.539928 49.066406 45.869141 A 1.0001 1.0001 0 0 0 49.328125 45.535156 C 49.389073 45.457278 49.451802 45.381448 49.511719 45.302734 z M 25.980469 46.802734 C 27.542653 47.440134 29.238546 47.787204 31 47.898438 L 31 51.974609 C 28.608259 51.857087 26.32783 51.320989 24.230469 50.4375 L 25.980469 46.802734 z M 38.019531 46.802734 L 39.769531 50.4375 C 37.67217 51.320989 35.391741 51.857087 33 51.974609 L 33 47.898438 C 34.761454 47.787203 36.457347 47.440134 38.019531 46.802734 z M 18.181641 49.105469 C 19.038532 49.798883 19.948478 50.427937 20.904297 50.988281 L 19.039062 54.541016 C 17.797793 53.826332 16.618491 53.016225 15.517578 52.113281 L 18.181641 49.105469 z M 45.818359 49.105469 L 48.482422 52.113281 C 47.381509 53.016225 46.202207 53.826332 44.960938 54.541016 L 43.095703 50.988281 C 44.051522 50.427937 44.961468 49.798883 45.818359 49.105469 z M 22.673828 51.921875 C 23.6673 52.388396 24.701966 52.782197 25.769531 53.097656 L 24.810547 56.986328 C 23.426316 56.589409 22.087496 56.086602 20.808594 55.476562 L 22.673828 51.921875 z M 41.326172 51.921875 L 43.191406 55.476562 C 41.912504 56.086602 40.573684 56.589409 39.189453 56.986328 L 38.230469 53.097656 C 39.298034 52.782197 40.3327 52.388396 41.326172 51.921875 z M 27.710938 53.578125 C 28.781765 53.790329 29.879719 53.924297 31 53.974609 L 31 57.974609 C 29.550975 57.919896 28.130512 57.754582 26.751953 57.472656 L 27.710938 53.578125 z M 36.289062 53.578125 L 37.248047 57.472656 C 35.869488 57.754582 34.449025 57.919896 33 57.974609 L 33 53.974609 C 34.120281 53.924297 35.218235 53.790329 36.289062 53.578125 z"/></svg>